<svg xmlns="http://www.w3.org/2000/svg" xmlns:xlink="http://www.w3.org/1999/xlink" width="253.601" height="308.344" viewBox="0 0 253.601 308.344">
  <defs>
    <filter id="Subtraction_3" x="0" y="88.589" width="127.282" height="219.755" filterUnits="userSpaceOnUse">
      <feOffset dx="3" dy="1" input="SourceAlpha"/>
      <feGaussianBlur stdDeviation="2" result="blur"/>
      <feFlood flood-color="#353637"/>
      <feComposite operator="in" in2="blur"/>
      <feComposite in="SourceGraphic"/>
    </filter>
    <filter id="eep" x="91.614" y="0" width="161.987" height="143.235" filterUnits="userSpaceOnUse">
      <feOffset dx="3" dy="1" input="SourceAlpha"/>
      <feGaussianBlur stdDeviation="2" result="blur-2"/>
      <feFlood flood-color="#353637"/>
      <feComposite operator="in" in2="blur-2"/>
      <feComposite in="SourceGraphic"/>
    </filter>
  </defs>
  <g id="Layer_2" data-name="Layer 2" transform="translate(3 5)">
    <g id="Layer_1" data-name="Layer 1" transform="translate(0 -0.742)">
      <g transform="matrix(1, 0, 0, 1, -3, -4.26)" filter="url(#Subtraction_3)">
        <path id="Subtraction_3-2" data-name="Subtraction 3" d="M52.492,207.755,5.736,69.811A46.054,46.054,0,0,1,73.909,10.874C78.345,9.117,100.706.335,105.236,0c.037,0,.074,0,.108,0a.557.557,0,0,1,.552.269c.636,1.283-3.626,6.888-8.138,12.821-3.48,4.577-7.079,9.309-8.421,12.1a7.162,7.162,0,0,1-.512.838c-.285.422-.531.786-.439.958.038.072.132.107.287.107.034,0,.071,0,.111-.005l25.952-2.147h.026a.521.521,0,0,1,.351.906L92.028,44.828c.088.9.088,1.822.088,2.716A45.843,45.843,0,0,1,84.25,73.295,46.19,46.19,0,0,1,63.986,89.982,45.767,45.767,0,0,1,46.059,93.6a46.707,46.707,0,0,1-8.579-.8,223.043,223.043,0,0,0,1,36.733c1.113,11.381,2.9,23.977,5.312,37.437,4.047,22.588,8.512,40.052,8.7,40.784ZM50.44,19.6a19.164,19.164,0,1,0,7.483,1.511A19.1,19.1,0,0,0,50.44,19.6Z" transform="translate(3 93.59)" fill="#fc0"/>
      </g>
      <g transform="matrix(1, 0, 0, 1, -3, -4.26)" filter="url(#eep)">
        <text id="eep-2" data-name="eep" transform="translate(123.09 119.79) rotate(-24)" fill="#fc0" font-size="70" font-family="Quicksand-Bold, Quicksand" font-weight="700"><tspan x="0" y="0">eep</tspan></text>
      </g>
    </g>
  </g>
</svg>
