<svg xmlns="http://www.w3.org/2000/svg" width="31.469" height="53.89" viewBox="0 0 31.469 53.89">
  <path id="Path_70" data-name="Path 70" d="M0,33.583C0,23.315,4.688,15.13,11.756,8.062c2.679-2.6,5.655-4.911,8.482-7.366,1.191-1.042,2.009-.967,2.679.6,4.018,9.747,5.432,19.644,2.827,30.061C23.661,39.759,18.9,46.009,11.905,50.92c-1.86,1.265-2.9.893-4.316-.074-4.39-2.9-6.25-7.292-7.143-12.277A45.928,45.928,0,0,1,0,33.583ZM24.48,22.571c-.372,0-.67-.074-.967-.074a22.877,22.877,0,0,0-9.152,4.464,2.007,2.007,0,0,0-.818,1.116c-.521,2.9-.967,5.878-1.414,8.854.372,0,.521.074.67,0,3.125-1.19,6.325-2.381,9.45-3.572.372-.149.818-.446.893-.744C24.108,29.417,25,26.143,24.48,22.571ZM6.7,18.255C4.241,21.6,1.86,28.747,2.009,31.946a1.421,1.421,0,0,0,.521,1.042c2.381,1.488,4.762,2.976,7.069,4.39.446-2.232,1.042-4.762,1.488-7.366.223-1.339.744-2.9.223-3.944A79.184,79.184,0,0,0,6.7,18.255Zm7.664,5.432c3.423-1.265,6.473-2.307,9.45-3.5a1.558,1.558,0,0,0,.818-1.116A30.794,30.794,0,0,0,22.992,7.169,14.8,14.8,0,0,0,21.28,4.49c-.223,0-.446.074-.67.074C18.527,10.889,16.444,17.214,14.36,23.687Zm-1.935-1.042c2.009-5.878,4.018-11.831,6.1-18.081A10.886,10.886,0,0,0,16.295,5.9q-4.353,5.023-8.482,10.268a1.421,1.421,0,0,0,0,1.339C9.3,19.223,10.863,20.934,12.426,22.646Zm8.929,13.989c-.149-.223-.223-.446-.372-.67-2.9,1.339-5.8,2.753-8.706,4.167-.223.074-.372.372-.446.521-.3,2.381-.521,4.836-.744,7.218A26.619,26.619,0,0,0,21.355,36.634ZM2.827,34.1a2.006,2.006,0,0,0-.6.521c-.67,4.464,2.827,12.5,6.325,14.286.223-2.307.521-4.613.67-6.92a2.938,2.938,0,0,0-.893-1.786C6.473,38.048,4.688,36.113,2.827,34.1Z" transform="matrix(0.996, 0.087, -0.087, 0.996, 4.508, 0)" fill="#559b00"/>
</svg>
