<svg xmlns="http://www.w3.org/2000/svg" width="304.15" height="151.851" viewBox="0 0 304.15 151.851">
  <g id="Artboard_1" data-name="Artboard 1" transform="translate(-163.71 -154.4)">
    <path id="Path_12" data-name="Path 12" d="M375.42,190.54s-4,47.07-24.95,43.1S375.42,190.54,375.42,190.54Z" fill="#8dc63f" opacity="0.8"/>
    <path id="Path_13" data-name="Path 13" d="M347.15,230.38s10.22-2.15,14.41-12.11C361.56,218.27,357.8,229.48,347.15,230.38Z" fill="#fafbf6"/>
    <path id="Path_14" data-name="Path 14" d="M175.51,287c-3,0-5.07-.66-6.2-2a7.61,7.61,0,0,1-1.7-5.1,24.63,24.63,0,0,1,1.2-6.9q1.2-4,2.5-7.7,1.69-4.89,4.1-11.5t5.15-13.8q2.74-7.2,5.6-14.2t5.55-12.7q-6.9.1-11.55.3t-8.35.55q-3.7.36-8.1,1.15a6.64,6.64,0,0,1,3.5-5.3,24,24,0,0,1,8.6-2.7,85.108,85.108,0,0,1,12.3-.8q6.9,0,12.35.55l10.25,1q4.8.51,9.6.6a15.47,15.47,0,0,1-7.8,3.9,51.291,51.291,0,0,1-9.3.8c-.73,0-1.5,0-2.3-.05s-1.6,0-2.4,0h-2.4q-3.2,8-7.35,20.2t-8.35,27.5q-1.4,5.31-2.55,9.5t-1.8,7.7a37.571,37.571,0,0,0-.65,6.8v1.1A5.352,5.352,0,0,0,175.51,287Z" fill="#8dc63f" opacity="0.9"/>
    <path id="Path_15" data-name="Path 15" d="M200.61,282.65q-6.11,0-9.15-3.35a11.81,11.81,0,0,1-3.05-8.25,23.2,23.2,0,0,1,2.25-9.5,39.571,39.571,0,0,1,6-9.4,34.71,34.71,0,0,1,8.25-7.15,17,17,0,0,1,8.9-2.75,8,8,0,0,1,4.25,1.2c1.3.8,1.95,2.44,1.95,4.9a12.57,12.57,0,0,1-2.25,7.15,23.13,23.13,0,0,1-5.9,5.95,35,35,0,0,1-8,4.25,32.641,32.641,0,0,1-8.65,2.05c-.13.67-.23,1.3-.3,1.9a14.685,14.685,0,0,0-.1,1.7,13.35,13.35,0,0,0,.35,3,7.55,7.55,0,0,0,1.25,2.75,5.89,5.89,0,0,0,2.45,1.95,9.3,9.3,0,0,0,3.85.7,16.63,16.63,0,0,0,8.5-2.45,32.5,32.5,0,0,0,7.8-6.45,42.28,42.28,0,0,0,6.1-8.8l1.2.9a37.21,37.21,0,0,1-6.85,10.4,32.5,32.5,0,0,1-9,6.85A21.55,21.55,0,0,1,200.61,282.65Zm-4.9-16.8a46.539,46.539,0,0,0,12.65-6.8,24.329,24.329,0,0,0,5.2-5.3,10.36,10.36,0,0,0,2.05-6.1,3,3,0,0,0-.4-1.7,1.93,1.93,0,0,0-1.7-.6,9.16,9.16,0,0,0-5.1,1.85,26.22,26.22,0,0,0-5.2,4.85,42.1,42.1,0,0,0-4.5,6.6,33.38,33.38,0,0,0-3,7.2Z" fill="#8dc63f" opacity="0.9"/>
    <path id="Path_16" data-name="Path 16" d="M227.91,283a7.3,7.3,0,0,1-5.25-2.05c-1.43-1.36-2.15-3.45-2.15-6.25a21.57,21.57,0,0,1,1.6-7.75,39.48,39.48,0,0,1,4.4-8.2,46.8,46.8,0,0,1,6.35-7.4,32.461,32.461,0,0,1,7.5-5.35,17.29,17.29,0,0,1,7.85-2,10.21,10.21,0,0,1,6.5,2.05,6.61,6.61,0,0,1,2.6,5.45c0,1.67-.45,2.8-1.35,3.4a6.29,6.29,0,0,1-3.55.9c.13-.53.25-1.11.35-1.75a11.181,11.181,0,0,0,.15-1.75,7,7,0,0,0-1.1-3.95,4.22,4.22,0,0,0-3.8-1.65,10.19,10.19,0,0,0-5.7,1.95,27.16,27.16,0,0,0-5.6,5.2,45.57,45.57,0,0,0-4.8,7.05,43.349,43.349,0,0,0-3.3,7.5,21.73,21.73,0,0,0-1.2,6.6q0,3.9,2.7,3.9a8.25,8.25,0,0,0,5-2.15,40.252,40.252,0,0,0,5.55-5.5q2.85-3.34,5.45-6.95c1.73-2.4,3.27-4.6,4.6-6.6.27-.4.43-.6.5-.6a12.316,12.316,0,0,1,1.55.4,6,6,0,0,1,1.65.8,1.54,1.54,0,0,1,.7,1.3,5.39,5.39,0,0,1-.9,2.45c-.6,1-1.27,2.22-2,3.55s-1.4,2.69-2,4.05a9.62,9.62,0,0,0-.9,3.85,6.06,6.06,0,0,0,.8,2.95,2.74,2.74,0,0,0,2.6,1.45c1.8,0,4.17-1.31,7.1-4a48.752,48.752,0,0,0,8.9-11.85l1,1a35.56,35.56,0,0,1-5.4,9.5,27.681,27.681,0,0,1-7.05,6.4,14,14,0,0,1-7.35,2.3c-2.47,0-4.28-.73-5.45-2.2a7.5,7.5,0,0,1-1.75-4.8,9.759,9.759,0,0,1,.1-1.35c.07-.5.13-1,.2-1.55a48.841,48.841,0,0,1-7.85,8.7,11.36,11.36,0,0,1-7.25,2.95Z" fill="#8dc63f" opacity="0.9"/>
    <path id="Path_17" data-name="Path 17" d="M287,287a26.84,26.84,0,0,1-10.2-1.95,17.62,17.62,0,0,1-7.75-5.95,16.36,16.36,0,0,1-2.95-10q0-5.19,2.05-8.1a11.25,11.25,0,0,1,5-4.1,15.361,15.361,0,0,1,5.7-1.2,20.59,20.59,0,0,0-4.1,6.4,18.629,18.629,0,0,0-1.4,7A14.82,14.82,0,0,0,275,276a12.44,12.44,0,0,0,5.05,5.15,17.08,17.08,0,0,0,8.6,1.95,24.39,24.39,0,0,0,8.8-1.65,17,17,0,0,0,7.05-4.9,12,12,0,0,0,2.75-8.05,12.52,12.52,0,0,0-2.2-7.4,23,23,0,0,0-5.65-5.5q-3.45-2.4-7.35-4.6a80.736,80.736,0,0,1-7.35-4.65,22.46,22.46,0,0,1-5.65-5.65,13.23,13.23,0,0,1-2.2-7.7,22,22,0,0,1,2-8.8,31.65,31.65,0,0,1,5.75-8.7,29.6,29.6,0,0,1,9-6.65,26.55,26.55,0,0,1,11.75-2.55q5.89,0,8.2,2.85a11.05,11.05,0,0,1,2.3,7.15,27,27,0,0,1-1.25,7.75,55.272,55.272,0,0,1-3.05,7.9,71.662,71.662,0,0,1-3.4,6.35,3.84,3.84,0,0,1-2.55-1.55,4.9,4.9,0,0,1-.75-2.75,15.409,15.409,0,0,1,.9-4.8c.6-1.8,1.28-3.66,2.05-5.6s1.45-3.81,2.05-5.65a16.069,16.069,0,0,0,.9-5,4.17,4.17,0,0,0-1.2-3.15c-.8-.76-2.27-1.15-4.4-1.15a17.82,17.82,0,0,0-8.7,2.2,25.489,25.489,0,0,0-7,5.65,28.189,28.189,0,0,0-4.65,7.25,17.59,17.59,0,0,0-1.65,6.9A9.71,9.71,0,0,0,285.3,237a22.36,22.36,0,0,0,5.55,4.8q3.39,2.16,7.25,4.3a62.443,62.443,0,0,1,7.25,4.75A22.53,22.53,0,0,1,311,257a16.44,16.44,0,0,1,2.15,8.65,17.87,17.87,0,0,1-2.3,9.15,21,21,0,0,1-6.15,6.65,29.691,29.691,0,0,1-8.45,4.1A31.279,31.279,0,0,1,287,287Z" fill="#8dc63f" opacity="0.9"/>
    <path id="Path_18" data-name="Path 18" d="M327,283.85a10.82,10.82,0,0,1-8-3.2q-3.21-3.19-3.2-9.6a25.471,25.471,0,0,1,1.95-9.75,32.14,32.14,0,0,1,5.15-8.55,26.83,26.83,0,0,1,7.1-6.05,15.31,15.31,0,0,1,7.7-2.25q4.1,0,5.6,2.4a9.31,9.31,0,0,1,1.5,5,9.52,9.52,0,0,1-1.35,5.1,4.11,4.11,0,0,1-3.65,2.2,3.59,3.59,0,0,1-2.9-1.5,6.51,6.51,0,0,0,2.6-3.25,11.4,11.4,0,0,0,1.1-4.65,3.241,3.241,0,0,0-.45-1.85,2,2,0,0,0-1.75-.65,8.73,8.73,0,0,0-5.55,2.4,27.481,27.481,0,0,0-5.3,6.2,40.41,40.41,0,0,0-4,8,22.741,22.741,0,0,0-1.55,7.9,11.19,11.19,0,0,0,1.5,5.7c1,1.74,2.93,2.6,5.8,2.6a16.73,16.73,0,0,0,8.05-2.2,26.74,26.74,0,0,0,7.55-6.3,32.47,32.47,0,0,0,5.6-9.6l1.3,1a37.46,37.46,0,0,1-6.3,10.75,32.15,32.15,0,0,1-8.8,7.45A19.62,19.62,0,0,1,327,283.85Z" fill="#8dc63f" opacity="0.9"/>
    <path id="Path_19" data-name="Path 19" d="M353.41,283a7.3,7.3,0,0,1-5.25-2.05c-1.43-1.36-2.15-3.45-2.15-6.25a21.569,21.569,0,0,1,1.6-7.75,39,39,0,0,1,4.4-8.2,46.288,46.288,0,0,1,6.35-7.4,32,32,0,0,1,7.5-5.35,17.29,17.29,0,0,1,7.85-2,10.23,10.23,0,0,1,6.5,2.05,6.61,6.61,0,0,1,2.6,5.45c0,1.67-.45,2.8-1.35,3.4a6.31,6.31,0,0,1-3.55.9c.13-.53.25-1.11.35-1.75a11.183,11.183,0,0,0,.15-1.75,7,7,0,0,0-1.1-3.95,4.23,4.23,0,0,0-3.8-1.65,10.19,10.19,0,0,0-5.7,1.95,26.909,26.909,0,0,0-5.6,5.2,45.572,45.572,0,0,0-4.8,7.05,43.35,43.35,0,0,0-3.3,7.5,21.731,21.731,0,0,0-1.2,6.6q0,3.9,2.7,3.9a8.25,8.25,0,0,0,5-2.15,40.251,40.251,0,0,0,5.55-5.5q2.85-3.34,5.45-6.95t4.6-6.6c.26-.4.43-.6.5-.6a12.766,12.766,0,0,1,1.55.4,6,6,0,0,1,1.65.8,1.56,1.56,0,0,1,.7,1.3,5.39,5.39,0,0,1-.9,2.45c-.6,1-1.27,2.22-2,3.55s-1.4,2.69-2,4.05a9.62,9.62,0,0,0-.9,3.85,6,6,0,0,0,.8,2.95,2.74,2.74,0,0,0,2.6,1.45c1.8,0,4.16-1.31,7.1-4a48.5,48.5,0,0,0,8.9-11.85l1,1a35.558,35.558,0,0,1-5.4,9.5,27.68,27.68,0,0,1-7.05,6.4,14,14,0,0,1-7.35,2.3q-3.71,0-5.45-2.2a7.5,7.5,0,0,1-1.75-4.8,9.759,9.759,0,0,1,.1-1.35c.06-.5.13-1,.2-1.55a49.231,49.231,0,0,1-7.85,8.7,11.38,11.38,0,0,1-7.25,2.95Z" fill="#8dc63f" opacity="0.9"/>
    <path id="Path_20" data-name="Path 20" d="M385.91,306.25a2.09,2.09,0,0,1-1.55-.85,6.241,6.241,0,0,1-1.15-1.8,4.669,4.669,0,0,1-.4-1.15q1.4-4.89,2.75-8.75c.9-2.56,1.8-5.2,2.7-7.9s1.78-5.86,2.65-9.5,1.76-8.15,2.7-13.55,1.86-12.1,2.8-20.1a2.659,2.659,0,0,1,.4-1.3c.2-.26.7-.4,1.5-.4a4.39,4.39,0,0,1,3.7,1.45,5.14,5.14,0,0,1,1.1,3.15,36,36,0,0,1-.6,5c-.4,2.4-1,5.24-1.7,8.5a47.311,47.311,0,0,1,4.25-6.7,25.88,25.88,0,0,1,5.85-5.7,12.35,12.35,0,0,1,7.2-2.3,9.35,9.35,0,0,1,7.25,3.15,11.82,11.82,0,0,1,2.85,8.25,22.259,22.259,0,0,1-1.75,8.25,31.45,31.45,0,0,1-4.9,8.2,25.83,25.83,0,0,1-7.45,6.25,19.19,19.19,0,0,1-9.5,2.4,12.14,12.14,0,0,1-4.2-.6c-1.07-.4-1.6-.8-1.6-1.2s.25-.41.75-.45,1.08-.05,1.75-.05A16.05,16.05,0,0,0,409,276.6a24.2,24.2,0,0,0,6.55-5.15,25.069,25.069,0,0,0,4.55-7.1,19.631,19.631,0,0,0,1.65-7.7,10.42,10.42,0,0,0-1.35-5.45A4.69,4.69,0,0,0,416,249a9.38,9.38,0,0,0-5.15,1.65,23.34,23.34,0,0,0-4.8,4.2,42.093,42.093,0,0,0-4,5.3,32.366,32.366,0,0,0-2.65,4.95q-1.8,7.5-3.6,14.45t-3.45,12.6q-1.65,5.65-3,9.25t-2.25,4.4a1.63,1.63,0,0,1-1.19.45Z" fill="#8dc63f" opacity="0.9"/>
    <path id="Path_21" data-name="Path 21" d="M442.11,282.65q-6.11,0-9.15-3.35a11.76,11.76,0,0,1-3-8.25,23.2,23.2,0,0,1,2.25-9.5,39.571,39.571,0,0,1,6-9.4,34.711,34.711,0,0,1,8.25-7.15,17,17,0,0,1,8.9-2.75,8,8,0,0,1,4.25,1.2c1.3.8,1.95,2.44,1.95,4.9a12.57,12.57,0,0,1-2.25,7.15,23.129,23.129,0,0,1-5.9,5.95,35.17,35.17,0,0,1-8,4.25,32.731,32.731,0,0,1-8.65,2.05,18.1,18.1,0,0,0-.3,1.9,14.686,14.686,0,0,0-.1,1.7,12.8,12.8,0,0,0,.35,3,7.55,7.55,0,0,0,1.25,2.75,5.82,5.82,0,0,0,2.45,1.95,9.27,9.27,0,0,0,3.85.7,16.659,16.659,0,0,0,8.5-2.45,32.5,32.5,0,0,0,7.8-6.45,42.28,42.28,0,0,0,6.1-8.8l1.2.9a37.43,37.43,0,0,1-6.85,10.4,32.5,32.5,0,0,1-9,6.85,21.58,21.58,0,0,1-9.9,2.45Zm-4.9-16.8a46.539,46.539,0,0,0,12.65-6.8,24.33,24.33,0,0,0,5.2-5.3,10.43,10.43,0,0,0,2.05-6.1,3.12,3.12,0,0,0-.4-1.7,1.94,1.94,0,0,0-1.7-.6,9.16,9.16,0,0,0-5.1,1.85,26,26,0,0,0-5.2,4.85,42.105,42.105,0,0,0-4.5,6.6,32.409,32.409,0,0,0-3,7.2Z" fill="#8dc63f" opacity="0.9"/>
    <path id="Path_22" data-name="Path 22" d="M323.33,154.4s-13.54,75.43,19.34,78.33S323.33,154.4,323.33,154.4Z" fill="#8dc63f"/>
    <path id="Path_23" data-name="Path 23" d="M349,229.06s-14.36-7.81-16.48-25.22C332.51,203.84,333.46,223,349,229.06Z" fill="#fafbf6"/>
  </g>
</svg>
