<svg id="Artboard_1" data-name="Artboard 1" xmlns="http://www.w3.org/2000/svg" width="417.12" height="208.253" viewBox="0 0 417.12 208.253">
  <path id="Path_12" data-name="Path 12" d="M386.722,190.54s-5.486,64.553-34.217,59.109S386.722,190.54,386.722,190.54Z" transform="translate(-96.377 -140.977)" fill="#fff" opacity="0.8"/>
  <path id="Path_13" data-name="Path 13" d="M347.15,234.878s14.016-2.949,19.762-16.608C366.912,218.27,361.756,233.644,347.15,234.878Z" transform="translate(-95.575 -130.677)" fill="#34c759"/>
  <path id="Path_14" data-name="Path 14" d="M179.893,316.975c-4.114,0-6.953-.905-8.5-2.743a10.437,10.437,0,0,1-2.331-6.994,33.779,33.779,0,0,1,1.646-9.463q1.646-5.486,3.429-10.56,2.318-6.706,5.623-15.771t7.063-18.926q3.758-9.874,7.68-19.474t7.611-17.417q-9.463.137-15.84.411t-11.451.754q-5.074.494-11.109,1.577a9.106,9.106,0,0,1,4.8-7.269,32.913,32.913,0,0,1,11.794-3.7,116.718,116.718,0,0,1,16.869-1.1q9.463,0,16.937.754l14.057,1.371q6.583.7,13.166.823a21.216,21.216,0,0,1-10.7,5.349,70.341,70.341,0,0,1-12.754,1.1c-1,0-2.057,0-3.154-.069s-2.194,0-3.291,0h-3.291q-4.389,10.971-10.08,27.7t-11.451,37.714q-1.92,7.282-3.5,13.029t-2.469,10.56a51.526,51.526,0,0,0-.891,9.326v1.509A7.338,7.338,0,0,0,179.893,316.975Z" transform="translate(-163.71 -135.124)" fill="#fff" opacity="0.9"/>
  <path id="Path_15" data-name="Path 15" d="M205.143,297.656q-8.379,0-12.549-4.594a16.2,16.2,0,0,1-4.183-11.314,31.818,31.818,0,0,1,3.086-13.029,54.27,54.27,0,0,1,8.229-12.891,47.6,47.6,0,0,1,11.314-9.806,23.314,23.314,0,0,1,12.206-3.771,10.971,10.971,0,0,1,5.829,1.646c1.783,1.1,2.674,3.346,2.674,6.72a17.239,17.239,0,0,1-3.086,9.806,31.722,31.722,0,0,1-8.091,8.16A48,48,0,0,1,209.6,274.41a44.765,44.765,0,0,1-11.863,2.811c-.178.919-.315,1.783-.411,2.606a20.143,20.143,0,0,0-.137,2.331,18.309,18.309,0,0,0,.48,4.114,10.354,10.354,0,0,0,1.714,3.771,8.078,8.078,0,0,0,3.36,2.674,12.755,12.755,0,0,0,5.28.96,22.806,22.806,0,0,0,11.657-3.36,44.57,44.57,0,0,0,10.7-8.846,57.984,57.984,0,0,0,8.366-12.069l1.646,1.234a51.031,51.031,0,0,1-9.394,14.263,44.572,44.572,0,0,1-12.343,9.394A29.554,29.554,0,0,1,205.143,297.656Zm-6.72-23.04a63.826,63.826,0,0,0,17.349-9.326,33.366,33.366,0,0,0,7.131-7.269,14.208,14.208,0,0,0,2.811-8.366,4.114,4.114,0,0,0-.549-2.331,2.647,2.647,0,0,0-2.331-.823,12.562,12.562,0,0,0-6.994,2.537,35.957,35.957,0,0,0-7.131,6.651,57.742,57.742,0,0,0-6.171,9.051,45.778,45.778,0,0,0-4.114,9.874Z" transform="translate(-154.537 -121.77)" fill="#fff" opacity="0.9"/>
  <path id="Path_16" data-name="Path 16" d="M230.659,297.488a10.011,10.011,0,0,1-7.2-2.811c-1.961-1.865-2.949-4.731-2.949-8.571a29.582,29.582,0,0,1,2.194-10.629,54.144,54.144,0,0,1,6.034-11.246,64.183,64.183,0,0,1,8.709-10.149,44.518,44.518,0,0,1,10.286-7.337A23.713,23.713,0,0,1,258.5,244a14,14,0,0,1,8.914,2.811,9.065,9.065,0,0,1,3.566,7.474c0,2.29-.617,3.84-1.851,4.663a8.626,8.626,0,0,1-4.869,1.234c.178-.727.343-1.522.48-2.4a15.332,15.332,0,0,0,.206-2.4,9.6,9.6,0,0,0-1.509-5.417,5.788,5.788,0,0,0-5.211-2.263,13.975,13.975,0,0,0-7.817,2.674,37.248,37.248,0,0,0-7.68,7.131,62.5,62.5,0,0,0-6.583,9.668,59.449,59.449,0,0,0-4.526,10.286,29.8,29.8,0,0,0-1.646,9.051q0,5.349,3.7,5.349a11.314,11.314,0,0,0,6.857-2.949,55.2,55.2,0,0,0,7.611-7.543q3.909-4.581,7.474-9.531c2.373-3.291,4.485-6.309,6.309-9.051.37-.549.59-.823.686-.823a16.893,16.893,0,0,1,2.126.549,8.227,8.227,0,0,1,2.263,1.1,2.112,2.112,0,0,1,.96,1.783,7.392,7.392,0,0,1-1.234,3.36c-.823,1.371-1.742,3.045-2.743,4.869s-1.92,3.689-2.743,5.554a13.193,13.193,0,0,0-1.234,5.28,8.311,8.311,0,0,0,1.1,4.046,3.758,3.758,0,0,0,3.566,1.989c2.469,0,5.719-1.8,9.737-5.486s8.091-9.024,12.206-16.251l1.371,1.371a48.768,48.768,0,0,1-7.406,13.029,37.962,37.962,0,0,1-9.669,8.777,19.2,19.2,0,0,1-10.08,3.154c-3.387,0-5.87-1-7.474-3.017a10.286,10.286,0,0,1-2.4-6.583,13.387,13.387,0,0,1,.137-1.851c.1-.686.178-1.371.274-2.126A66.982,66.982,0,0,1,240.6,293.442,15.58,15.58,0,0,1,230.659,297.488Z" transform="translate(-142.613 -121.122)" fill="#fff" opacity="0.9"/>
  <path id="Path_17" data-name="Path 17" d="M294.767,316.975a36.81,36.81,0,0,1-13.989-2.674,24.165,24.165,0,0,1-10.629-8.16,22.436,22.436,0,0,1-4.046-13.714q0-7.118,2.811-11.109a15.429,15.429,0,0,1,6.857-5.623,21.066,21.066,0,0,1,7.817-1.646,28.237,28.237,0,0,0-5.623,8.777,25.548,25.548,0,0,0-1.92,9.6,20.325,20.325,0,0,0,2.263,9.463,17.06,17.06,0,0,0,6.926,7.063,23.424,23.424,0,0,0,11.794,2.674,33.448,33.448,0,0,0,12.069-2.263,23.314,23.314,0,0,0,9.669-6.72,16.457,16.457,0,0,0,3.771-11.04,17.17,17.17,0,0,0-3.017-10.149,31.542,31.542,0,0,0-7.749-7.543q-4.731-3.291-10.08-6.309a110.716,110.716,0,0,1-10.08-6.377,30.8,30.8,0,0,1-7.749-7.749,18.144,18.144,0,0,1-3.017-10.56,30.171,30.171,0,0,1,2.743-12.069,43.405,43.405,0,0,1,7.886-11.931,40.594,40.594,0,0,1,12.343-9.12,36.412,36.412,0,0,1,16.114-3.5q8.078,0,11.246,3.909a15.154,15.154,0,0,1,3.154,9.806,37.028,37.028,0,0,1-1.714,10.629,75.8,75.8,0,0,1-4.183,10.834,98.268,98.268,0,0,1-4.663,8.709,5.266,5.266,0,0,1-3.5-2.126,6.72,6.72,0,0,1-1.029-3.771,21.132,21.132,0,0,1,1.234-6.583c.823-2.469,1.755-5.019,2.811-7.68s1.989-5.225,2.811-7.749a22.037,22.037,0,0,0,1.234-6.857,5.719,5.719,0,0,0-1.646-4.32c-1.1-1.042-3.113-1.577-6.034-1.577a24.439,24.439,0,0,0-11.931,3.017,34.956,34.956,0,0,0-9.6,7.749,38.658,38.658,0,0,0-6.377,9.943,24.124,24.124,0,0,0-2.263,9.463,13.316,13.316,0,0,0,2.949,8.709,30.664,30.664,0,0,0,7.611,6.583q4.649,2.962,9.943,5.9a85.641,85.641,0,0,1,9.943,6.514,30.9,30.9,0,0,1,7.749,8.434A22.546,22.546,0,0,1,330.63,287.7a24.508,24.508,0,0,1-3.154,12.549,28.8,28.8,0,0,1-8.434,9.12,40.719,40.719,0,0,1-11.589,5.623,42.9,42.9,0,0,1-12.686,1.989Z" transform="translate(-125.684 -135.124)" fill="#fff" opacity="0.9"/>
  <path id="Path_18" data-name="Path 18" d="M331.16,298.484a14.839,14.839,0,0,1-10.971-4.389q-4.4-4.375-4.389-13.166a34.931,34.931,0,0,1,2.674-13.371,44.077,44.077,0,0,1,7.063-11.726,36.8,36.8,0,0,1,9.737-8.3,21,21,0,0,1,10.56-3.086q5.623,0,7.68,3.291a12.768,12.768,0,0,1,2.057,6.857,13.056,13.056,0,0,1-1.852,6.994,5.637,5.637,0,0,1-5.006,3.017,4.923,4.923,0,0,1-3.977-2.057A8.928,8.928,0,0,0,348.3,258.1a15.636,15.636,0,0,0,1.509-6.377,4.444,4.444,0,0,0-.617-2.537,2.743,2.743,0,0,0-2.4-.891,11.972,11.972,0,0,0-7.611,3.291,37.688,37.688,0,0,0-7.269,8.5,55.422,55.422,0,0,0-5.486,10.971A31.189,31.189,0,0,0,324.3,281.89a15.347,15.347,0,0,0,2.057,7.817c1.371,2.386,4.018,3.566,7.954,3.566a22.945,22.945,0,0,0,11.04-3.017,36.673,36.673,0,0,0,10.354-8.64,44.529,44.529,0,0,0,7.68-13.166l1.783,1.371a51.374,51.374,0,0,1-8.64,14.743,44.091,44.091,0,0,1-12.069,10.217A26.908,26.908,0,0,1,331.16,298.484Z" transform="translate(-107.22 -120.953)" fill="#fff" opacity="0.9"/>
  <path id="Path_19" data-name="Path 19" d="M356.159,297.488a10.011,10.011,0,0,1-7.2-2.811c-1.961-1.865-2.949-4.731-2.949-8.571a29.58,29.58,0,0,1,2.194-10.629,53.486,53.486,0,0,1,6.034-11.246,63.478,63.478,0,0,1,8.709-10.149,43.885,43.885,0,0,1,10.286-7.337A23.712,23.712,0,0,1,384,244a14.03,14.03,0,0,1,8.914,2.811,9.065,9.065,0,0,1,3.566,7.474c0,2.29-.617,3.84-1.851,4.663a8.654,8.654,0,0,1-4.869,1.234c.178-.727.343-1.522.48-2.4a15.336,15.336,0,0,0,.206-2.4,9.6,9.6,0,0,0-1.509-5.417,5.8,5.8,0,0,0-5.211-2.263,13.975,13.975,0,0,0-7.817,2.674,36.9,36.9,0,0,0-7.68,7.131,62.5,62.5,0,0,0-6.583,9.669,59.443,59.443,0,0,0-4.526,10.286,29.8,29.8,0,0,0-1.646,9.051q0,5.349,3.7,5.349a11.314,11.314,0,0,0,6.857-2.949,55.2,55.2,0,0,0,7.611-7.543q3.909-4.581,7.474-9.531t6.309-9.051c.357-.549.59-.823.686-.823a17.5,17.5,0,0,1,2.126.549,8.227,8.227,0,0,1,2.263,1.1,2.139,2.139,0,0,1,.96,1.783,7.392,7.392,0,0,1-1.234,3.36c-.823,1.371-1.742,3.045-2.743,4.869s-1.92,3.689-2.743,5.554a13.192,13.192,0,0,0-1.234,5.28,8.229,8.229,0,0,0,1.1,4.046,3.758,3.758,0,0,0,3.566,1.989c2.469,0,5.705-1.8,9.737-5.486s8.091-9.024,12.206-16.251l1.371,1.371a48.768,48.768,0,0,1-7.406,13.029,37.962,37.962,0,0,1-9.669,8.777,19.2,19.2,0,0,1-10.08,3.154q-5.088,0-7.474-3.017a10.286,10.286,0,0,1-2.4-6.583,13.387,13.387,0,0,1,.137-1.851c.082-.686.178-1.371.274-2.126A67.516,67.516,0,0,1,366.1,293.442a15.607,15.607,0,0,1-9.943,4.046Z" transform="translate(-95.999 -121.122)" fill="#fff" opacity="0.9"/>
  <path id="Path_20" data-name="Path 20" d="M387.061,330.512a2.866,2.866,0,0,1-2.126-1.166,8.557,8.557,0,0,1-1.577-2.469,6.4,6.4,0,0,1-.549-1.577q1.92-6.706,3.771-12c1.234-3.511,2.469-7.131,3.7-10.834s2.441-8.037,3.634-13.029,2.414-11.177,3.7-18.583,2.551-16.594,3.84-27.566a3.647,3.647,0,0,1,.549-1.783c.274-.357.96-.549,2.057-.549a6.021,6.021,0,0,1,5.074,1.989,7.049,7.049,0,0,1,1.509,4.32,49.372,49.372,0,0,1-.823,6.857c-.549,3.291-1.371,7.186-2.331,11.657a64.881,64.881,0,0,1,5.829-9.189,35.494,35.494,0,0,1,8.023-7.817,16.938,16.938,0,0,1,9.874-3.154,12.823,12.823,0,0,1,9.943,4.32,16.21,16.21,0,0,1,3.909,11.314,30.527,30.527,0,0,1-2.4,11.314,43.132,43.132,0,0,1-6.72,11.246,35.424,35.424,0,0,1-10.217,8.571,26.317,26.317,0,0,1-13.029,3.291,16.649,16.649,0,0,1-5.76-.823c-1.467-.549-2.194-1.1-2.194-1.646s.343-.562,1.029-.617,1.481-.069,2.4-.069a22.012,22.012,0,0,0,10.546-2.674,33.189,33.189,0,0,0,8.983-7.063,34.381,34.381,0,0,0,6.24-9.737,26.923,26.923,0,0,0,2.263-10.56,14.291,14.291,0,0,0-1.851-7.474A6.432,6.432,0,0,0,428.328,252a12.864,12.864,0,0,0-7.063,2.263,32.009,32.009,0,0,0-6.583,5.76,57.727,57.727,0,0,0-5.486,7.269,44.386,44.386,0,0,0-3.634,6.789q-2.469,10.286-4.937,19.817t-4.731,17.28q-2.263,7.749-4.114,12.686t-3.086,6.034A2.235,2.235,0,0,1,387.061,330.512Z" transform="translate(-82.33 -122.26)" fill="#fff" opacity="0.9"/>
  <path id="Path_21" data-name="Path 21" d="M446.625,297.656q-8.379,0-12.549-4.594a16.128,16.128,0,0,1-4.114-11.314,31.817,31.817,0,0,1,3.086-13.029,54.268,54.268,0,0,1,8.229-12.891,47.6,47.6,0,0,1,11.314-9.806A23.314,23.314,0,0,1,464.8,242.25a10.971,10.971,0,0,1,5.829,1.646c1.783,1.1,2.674,3.346,2.674,6.72a17.238,17.238,0,0,1-3.086,9.806,31.72,31.72,0,0,1-8.091,8.16,48.234,48.234,0,0,1-10.971,5.828,44.887,44.887,0,0,1-11.863,2.811,24.83,24.83,0,0,0-.411,2.606,20.137,20.137,0,0,0-.137,2.331,17.549,17.549,0,0,0,.48,4.114,10.354,10.354,0,0,0,1.714,3.771,7.982,7.982,0,0,0,3.36,2.674,12.713,12.713,0,0,0,5.28.96,22.846,22.846,0,0,0,11.657-3.36,44.571,44.571,0,0,0,10.7-8.846,57.985,57.985,0,0,0,8.366-12.069l1.646,1.234a51.334,51.334,0,0,1-9.394,14.263A44.573,44.573,0,0,1,460.2,294.3a29.6,29.6,0,0,1-13.577,3.36Zm-6.72-23.04a63.825,63.825,0,0,0,17.349-9.326,33.367,33.367,0,0,0,7.131-7.269,14.3,14.3,0,0,0,2.811-8.366,4.278,4.278,0,0,0-.549-2.331,2.66,2.66,0,0,0-2.331-.823,12.562,12.562,0,0,0-6.994,2.537,35.659,35.659,0,0,0-7.131,6.651,57.746,57.746,0,0,0-6.171,9.051,44.447,44.447,0,0,0-4.114,9.874Z" transform="translate(-64.82 -121.77)" fill="#fff" opacity="0.9"/>
  <path id="Path_22" data-name="Path 22" d="M324.356,154.4s-18.569,103.447,26.523,107.424S324.356,154.4,324.356,154.4Z" transform="translate(-105.449 -154.4)" fill="#fff"/>
  <path id="Path_23" data-name="Path 23" d="M355.121,238.427s-19.694-10.711-22.6-34.587C332.506,203.84,333.809,230.117,355.121,238.427Z" transform="translate(-101.009 -136.037)" fill="#34c759"/>
</svg>
