<svg xmlns="http://www.w3.org/2000/svg" width="868.069" height="257.836" viewBox="0 0 868.069 257.836">
  <g id="Group_4145" data-name="Group 4145" transform="translate(-70.92 -53)">
    <g id="Group_4135" data-name="Group 4135" transform="translate(70.92 53)" opacity="0.8">
      <g id="Group_4134" data-name="Group 4134" transform="translate(0 0)">
        <g id="Group_4132" data-name="Group 4132" transform="translate(0)">
          <path id="Path_1" data-name="Path 1" d="M437.654,453.667c11.217-3.652,13.3-7.565,15.13-14.085.522-1.828.261-2.609-1.828-2.609-2.41,0-6.416.243-11.588.683-4.636,6.481-9.427,13.167-14.158,19.869C429.39,456.255,433.555,454.965,437.654,453.667Z" transform="translate(-326.029 -283.621)" fill="#382457"/>
          <path id="Path_2" data-name="Path 2" d="M395.418,540.491c4.212-.669,9.591-1.784,15.77-3.233,6.179-9.017,13.2-18.9,20.566-29.22-6.647.857-13.44,1.769-20.163,2.715,14.347-32.606,62.6-91.557,78.255-119.208,9.652-16.956,9.652-23.477,5.739-28.955-4.172-5.478-10.694-10.956-15.389-13.043-2.869-1.564-4.7-.522-6,1.567-27.649,48.517-88.95,123.9-100.95,151.555-7.3,16.693-7.3,23.737,3.913,31.562C384.985,539.706,387.855,541.8,395.418,540.491Z" transform="translate(-368.179 -348.793)" fill="#382457"/>
        </g>
        <g id="L" transform="translate(20.422 105.041)" style="isolation: isolate">
          <g id="Group_4133" data-name="Group 4133" style="isolation: isolate">
            <path id="Path_3" data-name="Path 3" d="M387.068,556.711c-8.925-6.226-8.925-11.829-3.113-25.109,9.544-22,58.309-81.968,80.305-120.565,1.038-1.659,2.49-2.489,4.772-1.245,3.736,1.661,8.923,6.017,12.243,10.375,3.113,4.358,3.113,9.546-4.565,23.034-12.45,22-50.838,68.893-62.252,94.831,26.561-3.735,54.574-6.847,62.252-6.847,1.661,0,1.87.622,1.454,2.075-1.454,5.188-3.113,8.3-12.036,11.207-24.277,7.678-51.463,15.147-64.535,17.222C395.573,562.728,393.292,561.067,387.068,556.711Z" transform="translate(-379.923 -409.194)" fill="#382457"/>
          </g>
        </g>
      </g>
    </g>
    <path id="Path_4" data-name="Path 4" d="M54.941,97.67V84.17H16.912v-119.6H2.08V97.67ZM65.019,65.535C65.019,85.691,75.1,99,95.443,99c20.536,0,30.614-13.31,30.614-33.466V-3.3c0-20.346-10.078-33.466-30.614-33.466C75.1-36.764,65.019-23.644,65.019-3.3ZM79.66-4.059c0-11.979,5.134-19.2,15.782-19.2,10.838,0,15.782,7.226,15.782,19.2V66.3c0,12.169-4.944,19.2-15.782,19.2-10.648,0-15.782-7.035-15.782-19.2Zm60.467-31.374V97.67h14.831V40.816h10.458c12.36,0,19.4,4.754,19.4,19.775V81.508c0,8.937.761,12.36,2.472,16.163h15.022c-2.472-4.564-2.662-10.078-2.662-15.972V60.972c0-14.261-4.564-24.149-16.733-27.762,11.409-3.613,16.543-12.74,16.543-27.381V-5.009c0-19.775-8.747-30.424-29.663-30.424Zm14.831,62.749V-21.932H169.41c11.029,0,15.4,6.275,15.4,18.254V9.062c0,14.451-7.035,18.254-18.825,18.254Zm60.087-62.749V97.67h14.832V40.816h10.458c12.36,0,19.4,4.754,19.4,19.775V81.508c0,8.937.761,12.36,2.472,16.163h15.022c-2.472-4.564-2.662-10.078-2.662-15.972V60.972c0-14.261-4.564-24.149-16.733-27.762,11.409-3.613,16.543-12.74,16.543-27.381V-5.009c0-19.775-8.747-30.424-29.663-30.424Zm14.832,62.749V-21.932h14.451c11.029,0,15.4,6.275,15.4,18.254V9.062c0,14.451-7.035,18.254-18.825,18.254Zm60.087-62.749V97.67H304.8v-133.1Zm44.875,58.946V-21.932h39.931v-13.5H320.007V97.67h54.763V84.17H334.838V36.823h32.515V23.513ZM470.794,97.67V84.17h-38.03v-119.6H417.933V97.67Zm59.9-26.811,5.134,26.811h14.832l-25.48-133.1H503.69L478.21,97.67H491.9l5.134-26.811ZM513.577-18.7,528.6,58.12H498.936Zm61.8,8.747L609.412,97.67h15.4v-133.1h-13.12V60.782l-30.8-96.215H562.065V97.67h13.31Zm79.482,33.466V-21.932h39.931v-13.5H640.026V97.67h54.763V84.17H654.857V36.823h32.515V23.513Z" transform="translate(244.2 150.931)" fill="rgba(56,36,87,0.8)"/>
  </g>
</svg>
