<svg xmlns="http://www.w3.org/2000/svg" xmlns:xlink="http://www.w3.org/1999/xlink" width="400" height="400" viewBox="0 0 400 400">
  <defs>
    <clipPath id="clip-Logo">
      <rect width="400" height="400"/>
    </clipPath>
  </defs>
  <g id="Logo" clip-path="url(#clip-Logo)">
    <g id="Group_4144" data-name="Group 4144" transform="translate(-1401.08 18)">
      <g id="Group_4135" data-name="Group 4135" transform="translate(0 -44)" opacity="0.8">
        <g id="Group_4134" data-name="Group 4134" transform="translate(1176.82 -269.793)">
          <g id="Group_4132" data-name="Group 4132" transform="translate(368.179 348.793)">
            <path id="Path_1" data-name="Path 1" d="M435.789,451.166c9.536-3.1,11.309-6.431,12.863-11.974.443-1.554.222-2.218-1.554-2.218-2.049,0-5.454.207-9.851.581-3.942,5.51-8.015,11.193-12.036,16.891C428.764,453.366,432.3,452.269,435.789,451.166Z" transform="translate(-340.893 -306.603)" fill="#382457"/>
            <path id="Path_2" data-name="Path 2" d="M391.336,511.762c3.581-.569,8.154-1.517,13.407-2.748,5.253-7.666,11.22-16.071,17.484-24.841-5.651.729-11.425,1.5-17.141,2.308,12.2-27.719,53.223-77.836,66.527-101.343,8.205-14.415,8.205-19.959,4.879-24.616-3.547-4.657-9.091-9.314-13.083-11.088-2.439-1.329-3.992-.444-5.1,1.332C434.8,392.011,382.688,456.1,372.487,479.607c-6.209,14.192-6.209,20.179,3.327,26.832C382.467,511.1,384.906,512.871,391.336,511.762Z" transform="translate(-368.179 -348.793)" fill="#382457"/>
          </g>
          <g id="L" transform="translate(385.541 438.092)" style="isolation: isolate">
            <g id="Group_4133" data-name="Group 4133" style="isolation: isolate">
              <path id="Path_3" data-name="Path 3" d="M386,534.6c-7.587-5.293-7.587-10.056-2.646-21.346,8.114-18.7,49.571-69.684,68.27-102.5a2.7,2.7,0,0,1,4.057-1.059c3.176,1.412,7.586,5.115,10.408,8.82,2.646,3.7,2.646,8.115-3.881,19.582-10.584,18.7-43.219,58.569-52.922,80.62,22.58-3.176,46.4-5.821,52.922-5.821,1.412,0,1.589.529,1.236,1.764-1.236,4.41-2.646,7.057-10.232,9.527-20.639,6.527-43.75,12.877-54.864,14.641C393.228,539.719,391.288,538.307,386,534.6Z" transform="translate(-379.923 -409.194)" fill="#382457"/>
            </g>
          </g>
        </g>
      </g>
      <path id="Path_4" data-name="Path 4" d="M16.536,0V-3.692H6.136V-36.4H2.08V0Zm2.756-8.788c0,5.512,2.756,9.152,8.32,9.152,5.616,0,8.372-3.64,8.372-9.152V-27.612c0-5.564-2.756-9.152-8.372-9.152-5.564,0-8.32,3.588-8.32,9.152Zm4-19.032c0-3.276,1.4-5.252,4.316-5.252,2.964,0,4.316,1.976,4.316,5.252V-8.58c0,3.328-1.352,5.252-4.316,5.252C24.7-3.328,23.3-5.252,23.3-8.58ZM39.832-36.4V0h4.056V-15.548h2.86c3.38,0,5.3,1.3,5.3,5.408v5.72A9.532,9.532,0,0,0,52.728,0h4.108a9.116,9.116,0,0,1-.728-4.368v-5.668c0-3.9-1.248-6.6-4.576-7.592,3.12-.988,4.524-3.484,4.524-7.488V-28.08c0-5.408-2.392-8.32-8.112-8.32Zm4.056,17.16V-32.708H47.84c3.016,0,4.212,1.716,4.212,4.992v3.484c0,3.952-1.924,4.992-5.148,4.992ZM60.32-36.4V0h4.056V-15.548h2.86c3.38,0,5.3,1.3,5.3,5.408v5.72A9.532,9.532,0,0,0,73.216,0h4.108A9.116,9.116,0,0,1,76.6-4.368v-5.668c0-3.9-1.248-6.6-4.576-7.592,3.12-.988,4.524-3.484,4.524-7.488V-28.08c0-5.408-2.392-8.32-8.112-8.32Zm4.056,17.16V-32.708h3.952c3.016,0,4.212,1.716,4.212,4.992v3.484c0,3.952-1.924,4.992-5.148,4.992ZM80.808-36.4V0h4.056V-36.4ZM93.08-20.28V-32.708H104V-36.4H89.024V0H104V-3.692H93.08V-16.64h8.892v-3.64ZM130.26,0V-3.692h-10.4V-36.4H115.8V0Zm16.38-7.332L148.044,0H152.1l-6.968-36.4h-5.876L132.288,0h3.744l1.4-7.332Zm-4.68-24.492,4.108,21.008h-8.112Zm16.9,2.392L168.168,0h4.212V-36.4h-3.588v26.312L160.368-36.4H155.22V0h3.64ZM180.6-20.28V-32.708h10.92V-36.4H176.54V0h14.976V-3.692H180.6V-16.64h8.892v-3.64Z" transform="translate(1504 329)" fill="rgba(56,36,87,0.8)"/>
    </g>
  </g>
</svg>
