<svg xmlns="http://www.w3.org/2000/svg" xmlns:xlink="http://www.w3.org/1999/xlink" width="904" height="400" viewBox="0 0 904 400">
  <defs>
    <clipPath id="clip-logo-1">
      <rect width="904" height="400"/>
    </clipPath>
  </defs>
  <g id="logo-1" clip-path="url(#clip-logo-1)">
    <g id="Group_4145" data-name="Group 4145" transform="translate(12.08 37)">
      <g id="Group_4135" data-name="Group 4135" transform="translate(-1474.08 -26)" opacity="0.8">
        <g id="Group_4134" data-name="Group 4134" transform="translate(1176.82 -269.793)">
          <g id="Group_4132" data-name="Group 4132" transform="translate(368.179 348.793)">
            <path id="Path_1" data-name="Path 1" d="M435.789,451.166c9.536-3.1,11.309-6.431,12.863-11.974.443-1.554.222-2.218-1.554-2.218-2.049,0-5.454.207-9.851.581-3.942,5.51-8.015,11.193-12.036,16.891C428.764,453.366,432.3,452.269,435.789,451.166Z" transform="translate(-340.893 -306.603)" fill="#382457"/>
            <path id="Path_2" data-name="Path 2" d="M391.336,511.762c3.581-.569,8.154-1.517,13.407-2.748,5.253-7.666,11.22-16.071,17.484-24.841-5.651.729-11.425,1.5-17.141,2.308,12.2-27.719,53.223-77.836,66.527-101.343,8.205-14.415,8.205-19.959,4.879-24.616-3.547-4.657-9.091-9.314-13.083-11.088-2.439-1.329-3.992-.444-5.1,1.332C434.8,392.011,382.688,456.1,372.487,479.607c-6.209,14.192-6.209,20.179,3.327,26.832C382.467,511.1,384.906,512.871,391.336,511.762Z" transform="translate(-368.179 -348.793)" fill="#382457"/>
          </g>
          <g id="L" transform="translate(385.541 438.092)" style="isolation: isolate">
            <g id="Group_4133" data-name="Group 4133" style="isolation: isolate">
              <path id="Path_3" data-name="Path 3" d="M386,534.6c-7.587-5.293-7.587-10.056-2.646-21.346,8.114-18.7,49.571-69.684,68.27-102.5a2.7,2.7,0,0,1,4.057-1.059c3.176,1.412,7.586,5.115,10.408,8.82,2.646,3.7,2.646,8.115-3.881,19.582-10.584,18.7-43.219,58.569-52.922,80.62,22.58-3.176,46.4-5.821,52.922-5.821,1.412,0,1.589.529,1.236,1.764-1.236,4.41-2.646,7.057-10.232,9.527-20.639,6.527-43.75,12.877-54.864,14.641C393.228,539.719,391.288,538.307,386,534.6Z" transform="translate(-379.923 -409.194)" fill="#382457"/>
            </g>
          </g>
        </g>
      </g>
      <path id="Path_4" data-name="Path 4" d="M47.019,77.524V66.046H14.689V-35.632H2.08V77.524ZM55.587,50.2c0,17.135,8.568,28.451,25.864,28.451,17.458,0,26.026-11.316,26.026-28.451V-8.313c0-17.3-8.568-28.451-26.026-28.451-17.3,0-25.864,11.154-25.864,28.451ZM68.034-8.96c0-10.184,4.365-16.327,13.417-16.327,9.214,0,13.417,6.143,13.417,16.327V50.851c0,10.346-4.2,16.327-13.417,16.327-9.052,0-13.417-5.981-13.417-16.327Zm51.405-26.672V77.524h12.609V29.19h8.891c10.507,0,16.488,4.041,16.488,16.812V63.783c0,7.6.647,10.507,2.1,13.74H172.3c-2.1-3.88-2.263-8.568-2.263-13.579V46.325c0-12.124-3.88-20.53-14.225-23.6,9.7-3.071,14.064-10.831,14.064-23.278V-9.768c0-16.812-7.436-25.864-25.218-25.864Zm12.609,53.345V-24.155h12.286c9.376,0,13.094,5.335,13.094,15.519V2.194c0,12.286-5.981,15.519-16,15.519ZM183.13-35.632V77.524h12.609V29.19h8.891c10.507,0,16.488,4.041,16.488,16.812V63.783c0,7.6.647,10.507,2.1,13.74h12.77c-2.1-3.88-2.263-8.568-2.263-13.579V46.325c0-12.124-3.88-20.53-14.225-23.6,9.7-3.071,14.064-10.831,14.064-23.278V-9.768c0-16.812-7.436-25.864-25.218-25.864Zm12.609,53.345V-24.155h12.286c9.376,0,13.094,5.335,13.094,15.519V2.194c0,12.286-5.981,15.519-16,15.519ZM246.82-35.632V77.524h12.609V-35.632ZM284.97,14.48V-24.155h33.947V-35.632H272.361V77.524h46.556V66.046H284.97V25.8h27.642V14.48ZM400.551,77.524V66.046h-32.33V-35.632H355.612V77.524Zm50.92-22.793,4.365,22.793h12.609L446.783-35.632H428.516L406.855,77.524h11.639l4.365-22.793ZM436.922-21.407,449.693,43.9H424.475Zm52.537,7.436,28.936,91.495h13.094V-35.632H520.335v81.8l-26.188-81.8h-16V77.524h11.316Zm67.57,28.451V-24.155h33.947V-35.632H544.421V77.524h46.556V66.046H557.029V25.8h27.642V14.48Z" transform="translate(217.92 141.764)" fill="rgba(56,36,87,0.8)"/>
    </g>
  </g>
</svg>
