<svg xmlns="http://www.w3.org/2000/svg" xmlns:xlink="http://www.w3.org/1999/xlink" width="400" height="400" viewBox="0 0 400 400">
  <defs>
    <clipPath id="clip-Marquee">
      <rect width="400" height="400"/>
    </clipPath>
  </defs>
  <g id="Marquee" clip-path="url(#clip-Marquee)">
    <g id="Group_4144" data-name="Group 4144" transform="translate(-1431 -6)">
      <g id="Group_4135" data-name="Group 4135" transform="translate(0 -44)" opacity="0.8">
        <g id="Group_4134" data-name="Group 4134" transform="translate(1545 79)">
          <g id="Group_4132" data-name="Group 4132" transform="translate(0)">
            <path id="Path_1" data-name="Path 1" d="M441.684,459.074c14.85-4.835,17.611-10.015,20.03-18.646.69-2.42.345-3.454-2.42-3.454-3.191,0-8.493.322-15.341.9-6.138,8.581-12.481,17.431-18.743,26.3C430.744,462.5,436.258,460.792,441.684,459.074Z" transform="translate(-293.905 -233.953)" fill="#382457"/>
            <path id="Path_2" data-name="Path 2" d="M404.24,602.578c5.576-.886,12.7-2.362,20.877-4.28,8.18-11.937,17.472-25.026,27.227-38.684-8.8,1.135-17.792,2.341-26.693,3.594,18.994-43.166,82.881-121.211,103.6-157.818,12.778-22.448,12.778-31.081,7.6-38.334-5.523-7.252-14.157-14.5-20.373-17.268-3.8-2.07-6.216-.691-7.943,2.074-36.6,64.23-117.759,164.034-133.646,200.641-9.67,22.1-9.67,31.424,5.18,41.785C390.428,601.54,394.227,604.305,404.24,602.578Z" transform="translate(-368.179 -348.793)" fill="#382457"/>
          </g>
          <g id="L" transform="translate(27.037 139.062)" style="isolation: isolate">
            <g id="Group_4133" data-name="Group 4133" style="isolation: isolate">
              <path id="Path_3" data-name="Path 3" d="M389.382,604.489c-11.816-8.242-11.816-15.66-4.121-33.241,12.635-29.12,77.195-108.516,106.315-159.614,1.375-2.2,3.3-3.295,6.318-1.648,4.945,2.2,11.813,7.966,16.208,13.736,4.121,5.77,4.121,12.637-6.044,30.494-16.482,29.122-67.3,91.207-82.414,125.546,35.163-4.945,72.249-9.064,82.414-9.064,2.2,0,2.475.824,1.925,2.747-1.925,6.868-4.121,10.989-15.934,14.836-32.14,10.165-68.131,20.053-85.437,22.8C400.642,612.455,397.622,610.256,389.382,604.489Z" transform="translate(-379.923 -409.194)" fill="#382457"/>
            </g>
          </g>
        </g>
      </g>
    </g>
  </g>
</svg>
