<svg xmlns="http://www.w3.org/2000/svg" width="450.764" height="461.745" viewBox="0 0 450.764 461.745">
  <g id="Group_2" data-name="Group 2" transform="translate(18.34 13.927)">
    <g id="Jot" transform="translate(-18.34 -14.895)" style="isolation: isolate">
      <text id="Jot-2" data-name="Jot" transform="translate(129.5 384.769) rotate(-30)" fill="#2c698d" font-size="199" font-family="Pacifico-Regular, Pacifico" style="isolation: isolate"><tspan x="0" y="0" letter-spacing="-0.04em">J</tspan><tspan y="0" letter-spacing="0.02em">o</tspan><tspan y="0">t</tspan></text>
    </g>
    <g id="Group_1" data-name="Group 1" transform="translate(190.645 17.882)">
      <g id="Layer_2" data-name="Layer 2" transform="translate(0 0)">
        <g id="Layer_1" data-name="Layer 1">
          <path id="Path_2" data-name="Path 2" d="M327.48,376.557c-14.709,24.06-29.167,48.2-45.41,71.236-5.968,7.145-21.917,35.723-20.257,27.633.525-2.543,13.091-39.127,16.811-45.095l2.627,9.9c15.781-21.013,28.389-43.939,43.141-65.709,1.324-2.1-11.431-14.247-14.31-7.208-9.246,19.4-20.614,41.8-30.343,60.939l1.114-3.425c13.869-33.18,52.155-101.831,56.169-104.185,5.947-4.077,16.811,4.707,14.857,9.435" transform="translate(-261.693 -319.59)" fill="#2c698d"/>
        </g>
      </g>
    </g>
  </g>
</svg>
