<svg xmlns="http://www.w3.org/2000/svg" width="398" height="363.011" viewBox="0 0 398 363.011">
  <g id="undraw_Credit_card_re_blml" transform="translate(-0.001 -0.001)">
    <rect id="Rectangle_18" data-name="Rectangle 18" width="347.357" height="31.578" transform="translate(9.51 130.544) rotate(-16.244)" fill="#3f3d56"/>
    <path id="Path_99" data-name="Path 99" d="M365.424,461.291,316.27,292.586a4.912,4.912,0,0,1,3.342-6.09l325.405-94.81a4.916,4.916,0,0,1,6.09,3.342l43.547,149.461-1.348.393L649.76,195.42a3.515,3.515,0,0,0-4.35-2.387L320,287.843a3.509,3.509,0,0,0-2.387,4.35L366.771,460.9Z" transform="translate(-316.071 -191.488)" fill="#3f3d56"/>
    <path id="Path_100" data-name="Path 100" d="M747.489,391.1a4.57,4.57,0,0,1-4.381-3.286l-8.244-28.3a4.566,4.566,0,0,1,3.1-5.655l28.3-8.244a4.566,4.566,0,0,1,5.655,3.1l8.244,28.3a4.567,4.567,0,0,1-3.1,5.655l-28.3,8.244A4.549,4.549,0,0,1,747.489,391.1Z" transform="translate(-440.929 -237.406)" fill="#382457"/>
    <path id="Path_101" data-name="Path 101" d="M378.3,333.72a8.2,8.2,0,0,0-.3-.856,8.421,8.421,0,0,0-16.077,4.681,8,8,0,0,0,.2.884,8.434,8.434,0,0,0,8.091,6.063,8.242,8.242,0,0,0,2.351-.337A8.43,8.43,0,0,0,378.3,333.72Zm-6.126,9.087a7.027,7.027,0,0,1-8.7-4.772,8.015,8.015,0,0,1-.2-.884,7.015,7.015,0,0,1,13.361-3.888,5.857,5.857,0,0,1,.316.849,7.021,7.021,0,0,1-4.779,8.694Z" transform="translate(-329.707 -232.1)" fill="#382457"/>
    <path id="Path_102" data-name="Path 102" d="M353.7,341.27a7.72,7.72,0,0,1,2.953-8.461,7.719,7.719,0,1,0,4.082,14.011A7.721,7.721,0,0,1,353.7,341.27Z" transform="translate(-325.76 -233.637)" fill="#382457"/>
    <path id="Path_103" data-name="Path 103" d="M642.59,393.111a4.24,4.24,0,0,0-5.228-2.947l-46.588,13.031-5.017,1.4h31.508l5.017-1.4,17.368-4.856a4.245,4.245,0,0,0,2.94-5.228Z" transform="translate(-396.51 -250.7)" fill="#192421"/>
    <path id="Path_104" data-name="Path 104" d="M586.525,379.243a4.242,4.242,0,0,0-5.228-2.94l-69.906,19.55a4.258,4.258,0,0,0-3.067,4.61h18.1l5.024-1.4,52.139-14.582A4.249,4.249,0,0,0,586.525,379.243Z" transform="translate(-373.404 -246.565)" fill="#192421"/>
    <path id="Path_105" data-name="Path 105" d="M730.089,408.8H391.153a4.918,4.918,0,0,0-4.912,4.912V614.4a4.917,4.917,0,0,0,4.912,4.912H730.089A4.917,4.917,0,0,0,735,614.4V413.71A4.918,4.918,0,0,0,730.089,408.8ZM733.6,614.4a3.51,3.51,0,0,1-3.509,3.509H391.153a3.51,3.51,0,0,1-3.509-3.509V413.71a3.51,3.51,0,0,1,3.509-3.509H730.089a3.51,3.51,0,0,1,3.509,3.509Z" transform="translate(-337 -256.304)" fill="#3f3d56"/>
    <path id="Path_106" data-name="Path 106" d="M436.658,440.642a8.421,8.421,0,1,1,8.421-8.421A8.421,8.421,0,0,1,436.658,440.642Zm0-15.438a7.017,7.017,0,1,0,7.017,7.017A7.017,7.017,0,0,0,436.658,425.2Z" transform="translate(-349.526 -260.779)" fill="#382457"/>
    <path id="Path_107" data-name="Path 107" d="M419.445,432.519a7.72,7.72,0,0,1,5.2-7.3,7.719,7.719,0,1,0,0,14.594A7.721,7.721,0,0,1,419.445,432.519Z" transform="translate(-345.402 -261.077)" fill="#382457"/>
    <path id="Path_108" data-name="Path 108" d="M486.2,564.156a6.323,6.323,0,0,1-6.316-6.316V538.893a6.316,6.316,0,0,1,12.631,0V557.84A6.323,6.323,0,0,1,486.2,564.156Z" transform="translate(-364.93 -293.224)" fill="#382457"/>
    <path id="Path_109" data-name="Path 109" d="M510.2,564.156a6.323,6.323,0,0,1-6.316-6.316V538.893a6.316,6.316,0,0,1,12.631,0V557.84A6.323,6.323,0,0,1,510.2,564.156Z" transform="translate(-372.088 -293.224)" fill="#382457"/>
    <path id="Path_110" data-name="Path 110" d="M534.2,564.156a6.323,6.323,0,0,1-6.316-6.316V538.893a6.316,6.316,0,0,1,12.631,0V557.84A6.323,6.323,0,0,1,534.2,564.156Z" transform="translate(-379.247 -293.224)" fill="#382457"/>
    <path id="Path_111" data-name="Path 111" d="M571.2,564.156a6.323,6.323,0,0,1-6.316-6.316V538.893a6.316,6.316,0,0,1,12.631,0V557.84A6.323,6.323,0,0,1,571.2,564.156Z" transform="translate(-390.283 -293.224)" fill="#382457"/>
    <path id="Path_112" data-name="Path 112" d="M595.2,564.156a6.323,6.323,0,0,1-6.316-6.316V538.893a6.316,6.316,0,0,1,12.631,0V557.84A6.323,6.323,0,0,1,595.2,564.156Z" transform="translate(-397.441 -293.224)" fill="#382457"/>
    <path id="Path_113" data-name="Path 113" d="M619.2,564.156a6.323,6.323,0,0,1-6.316-6.316V538.893a6.316,6.316,0,0,1,12.631,0V557.84A6.323,6.323,0,0,1,619.2,564.156Z" transform="translate(-404.6 -293.224)" fill="#382457"/>
    <path id="Path_114" data-name="Path 114" d="M656.2,564.156a6.323,6.323,0,0,1-6.316-6.316V538.893a6.316,6.316,0,0,1,12.631,0V557.84a6.323,6.323,0,0,1-6.316,6.316Z" transform="translate(-415.636 -293.224)" fill="#382457"/>
    <path id="Path_115" data-name="Path 115" d="M680.2,564.156a6.323,6.323,0,0,1-6.316-6.316V538.893a6.316,6.316,0,0,1,12.631,0V557.84A6.323,6.323,0,0,1,680.2,564.156Z" transform="translate(-422.794 -293.224)" fill="#382457"/>
    <path id="Path_116" data-name="Path 116" d="M704.2,564.156a6.323,6.323,0,0,1-6.316-6.316V538.893a6.316,6.316,0,0,1,12.631,0V557.84A6.323,6.323,0,0,1,704.2,564.156Z" transform="translate(-429.953 -293.224)" fill="#382457"/>
    <path id="Path_117" data-name="Path 117" d="M741.2,564.156a6.323,6.323,0,0,1-6.316-6.316V538.893a6.316,6.316,0,0,1,12.631,0V557.84A6.323,6.323,0,0,1,741.2,564.156Z" transform="translate(-440.989 -293.224)" fill="#382457"/>
    <path id="Path_118" data-name="Path 118" d="M765.2,564.156a6.323,6.323,0,0,1-6.316-6.316V538.893a6.315,6.315,0,0,1,12.631,0V557.84A6.323,6.323,0,0,1,765.2,564.156Z" transform="translate(-448.147 -293.224)" fill="#382457"/>
    <path id="Path_119" data-name="Path 119" d="M789.2,564.156a6.323,6.323,0,0,1-6.316-6.316V538.893a6.316,6.316,0,0,1,12.631,0V557.84A6.323,6.323,0,0,1,789.2,564.156Z" transform="translate(-455.306 -293.224)" fill="#382457"/>
    <path id="Path_120" data-name="Path 120" d="M509.487,674.137H418.655a4.244,4.244,0,0,1,0-8.487h90.832a4.244,4.244,0,0,1,0,8.487Z" transform="translate(-345.402 -332.915)" fill="#192421"/>
    <path id="Path_121" data-name="Path 121" d="M492.744,648.137H460.155a4.244,4.244,0,1,1,0-8.487h32.589a4.244,4.244,0,0,1,0,8.487Z" transform="translate(-357.781 -325.161)" fill="#192421"/>
    <rect id="Rectangle_19" data-name="Rectangle 19" width="345.953" height="1.403" transform="translate(50.392 194.443)" fill="#3f3d56"/>
  </g>
</svg>
