<svg xmlns="http://www.w3.org/2000/svg" width="535" height="306.933" viewBox="0 0 535 306.933">
  <g id="undraw_Fingerprint_re_uf3f" transform="translate(0)">
    <path id="Path_122" data-name="Path 122" d="M147.207,276.892a7.187,7.187,0,0,1-9.157-8.444c4.181-17.4,20.081-59.937,78-77.83,25.09-7.751,49.152-7.883,71.487-.4a116.08,116.08,0,0,1,36.408,20.371,7.128,7.128,0,0,1,1.167,10.012l-.044.055a7.3,7.3,0,0,1-10.165,1.154c-10.571-8.329-42.652-33.634-94.645-17.573-50.768,15.683-64.559,52.366-68.136,67.374A7.08,7.08,0,0,1,147.207,276.892Z" transform="translate(-137.872 -184.704)" fill="#008f7a"/>
    <path id="Path_123" data-name="Path 123" d="M320.888,395.351a7.15,7.15,0,0,1-1.776.334c-45.251,2.437-74.042-35.156-75.224-36.724l-.219-.362c-.721-1.119-18.142-27.624-10.473-48.674,3.523-9.623,11.313-16.378,23.221-20.057,11.075-3.421,20.137-2.409,27.851,3.1,6.325,4.488,10.378,11.18,14.307,17.643,8.171,13.419,13.179,20.246,28.71,16.307,6.82-1.731,10-7.063,11.458-11.216,3.917-11.3.445-26.709-8.738-38.366-11.865-15.123-45.069-40.241-86.036-27.586-17.494,5.4-31.812,16.054-41.4,30.718a78.934,78.934,0,0,0-12.662,41.38c-.159,26.245,21.35,60.774,21.554,61.086a7.114,7.114,0,0,1-2.261,9.8l-.066.041a7.284,7.284,0,0,1-9.976-2.233c-.971-1.579-23.939-38.395-23.753-68.727.258-32.878,20.237-72.117,64.341-85.741a90.873,90.873,0,0,1,61.97,3.027c15.626,6.446,30.088,17.116,39.649,29.3,12.212,15.552,16.515,35.91,10.955,51.8-3.706,10.593-11.379,17.9-21.577,20.515-26.577,6.76-36.988-10.261-44.581-22.677-7.8-12.729-12.11-18.7-25.586-14.535-7.4,2.286-11.958,5.949-13.876,11.211-2.609,7.194-.136,16.415,2.4,22.879l.079.2A58.432,58.432,0,0,0,264,359.363c10.426,9.628,29.782,23.355,54.452,22.031a7.125,7.125,0,0,1,7.553,6.669c0,.023,0,.046,0,.068a7.281,7.281,0,0,1-5.124,7.219Z" transform="translate(-153.68 -204.633)" fill="#008f7a"/>
    <path id="Path_124" data-name="Path 124" d="M286.524,428.761a7.3,7.3,0,0,1-5.714-.6c-22.319-12.645-37.986-29.653-49.269-53.491l-.045-.147c-7.111-15.894-11.391-40.177-1.949-60.7,6.971-15.144,20.055-25.788,38.823-31.586,22.2-6.857,42.869-1.809,59.833,14.53a88.659,88.659,0,0,1,18.514,26.221,7.245,7.245,0,1,1-13.332,5.675,74.244,74.244,0,0,0-15.609-21.858c-13.076-12.441-28.277-16.119-45.232-10.881-14.652,4.526-24.742,12.528-29.907,23.786-7.448,16.2-3.613,36.438,1.951,48.89,9.948,21.083,23.747,36.038,43.391,47.148a7.094,7.094,0,0,1,2.694,9.664l-.055.1a7.275,7.275,0,0,1-4.1,3.251Z" transform="translate(-174.189 -224.528)" fill="#008f7a"/>
    <circle id="Ellipse_12" data-name="Ellipse 12" cx="9.232" cy="9.232" r="9.232" transform="translate(105.453 114.506)" fill="#e6e6e6"/>
    <path id="Path_125" data-name="Path 125" d="M617.142,559.481a3.772,3.772,0,0,1-3.036-1.53l-5.071-6.876a3.762,3.762,0,0,1,.795-5.261l43.355-31.976a3.762,3.762,0,0,1,5.262.795l5.071,6.875a3.763,3.763,0,0,1-.794,5.261l-43.355,31.976A3.736,3.736,0,0,1,617.142,559.481Z" transform="translate(-335.996 -323.012)" fill="#008f7a"/>
    <path id="Path_126" data-name="Path 126" d="M671.447,521.99l-6.636-9a3.473,3.473,0,0,1,.734-4.856l25.389-22.245a3.473,3.473,0,0,1,4.857.734l12.134,14.5a3.473,3.473,0,0,1-.734,4.857L676.3,522.724A3.473,3.473,0,0,1,671.447,521.99Z" transform="translate(-359.511 -311.266)" fill="#382457"/>
    <path id="Path_127" data-name="Path 127" d="M738.292,657.673h-8.543a3.767,3.767,0,0,1-3.763-3.762V582.7a3.767,3.767,0,0,1,3.763-3.763h8.543a3.767,3.767,0,0,1,3.762,3.763V653.91A3.767,3.767,0,0,1,738.292,657.673Z" transform="translate(-385.56 -350.74)" fill="#008f7a"/>
    <path id="Path_128" data-name="Path 128" d="M767.484,657.673H758.94a3.767,3.767,0,0,1-3.762-3.762V582.7a3.767,3.767,0,0,1,3.762-3.763h8.544a3.767,3.767,0,0,1,3.762,3.763V653.91A3.767,3.767,0,0,1,767.484,657.673Z" transform="translate(-397.854 -350.74)" fill="#008f7a"/>
    <circle id="Ellipse_13" data-name="Ellipse 13" cx="30.979" cy="30.979" r="30.979" transform="translate(322.241 82.325)" fill="#008f7a"/>
    <path id="Path_129" data-name="Path 129" d="M772.667,564.666l-17.941-79.675V466.166a4.631,4.631,0,0,0-4.63-4.631H732.909V449.43a4.631,4.631,0,0,0-4.631-4.631h-9.262a4.63,4.63,0,0,0-4.631,4.631v12.105H697.2a4.631,4.631,0,0,0-4.631,4.631V565.2a4.61,4.61,0,0,0,.338,1.732,4.535,4.535,0,0,0,4.27,3.593l72.6,2.42C774.118,573.058,776.087,567.415,772.667,564.666Z" transform="translate(-371.486 -294.245)" fill="#382457"/>
    <path id="Path_130" data-name="Path 130" d="M742.79,380.894c-1.913-.054-4.295-.12-6.129-1.461a4.707,4.707,0,0,1-1.852-3.514,3.167,3.167,0,0,1,1.077-2.6,4.09,4.09,0,0,1,3.865-.556l1.421,1.848-.958-.439c-1.111-.51-2.635-.769-3.582.032a2.034,2.034,0,0,0-.667,1.677,3.556,3.556,0,0,0,1.378,2.62c1.428,1.043,3.326,1.178,5.479,1.238Z" transform="translate(-389.272 -256.583)" fill="#2f2e41"/>
    <rect id="Rectangle_21" data-name="Rectangle 21" width="6.235" height="1.158" transform="translate(337.009 105.745)" fill="#2f2e41"/>
    <rect id="Rectangle_22" data-name="Rectangle 22" width="6.235" height="1.158" transform="translate(356.689 105.745)" fill="#2f2e41"/>
    <path id="Path_131" data-name="Path 131" d="M694.058,314.428c-5.5-3.335-8.094-9.661-8.1-15.918a22.945,22.945,0,0,1,8.111-17.525c5.668-4.9,13.216-7.3,20.59-7.91,8.922-.737,17.786,1.2,26.306,3.677,9.123,2.65,18.063,5.985,27.4,7.84,9.063,1.8,18.149,1.978,27.072-.626,8.235-2.4,16.594-6.65,25.39-5.914,7.6.636,13.367,5.691,17.248,11.937,7.705,12.4,8.314,29.046,19.4,39.372,4.791,4.465,11.032,6.487,17.271,8,5.982,1.45,12.363,2.378,17.852,5.312,5.886,3.146,9.449,9.059,8.529,15.834-1.046,7.695-6.521,14.318-12.55,18.838a53.1,53.1,0,0,1-44.8,8.756c-15.995-4.243-28.993-16.64-46.034-17.416-9.507-.433-18.867,2.157-28.372,1.727-6.588-.3-13.678-2.733-18.266-7.632a14.3,14.3,0,0,1-3.911-8.415c-.1-1.1-1.841-1.114-1.736,0,.651,6.921,5.746,12.033,11.826,14.844a32.623,32.623,0,0,0,10.118,2.785,64.446,64.446,0,0,0,14.025-.48,121.988,121.988,0,0,1,14.73-1.138,42.1,42.1,0,0,1,13.219,2.351c8.165,2.8,15.521,7.447,23.321,11.065a57.122,57.122,0,0,0,23.817,5.728,55.693,55.693,0,0,0,23.366-5.011c7.223-3.29,14.01-8.2,18.507-14.823,4.216-6.208,6.43-14.351,2.635-21.3-2.974-5.447-8.646-8.2-14.364-9.9-6.34-1.881-12.966-2.74-19.171-5.083a26.393,26.393,0,0,1-8.782-5.268,33,33,0,0,1-6.675-9.21c-3.553-6.931-5.368-14.542-8.36-21.7-2.772-6.631-6.564-13.315-12.673-17.4a21.558,21.558,0,0,0-11.031-3.561,38.423,38.423,0,0,0-12.812,2.061c-4.377,1.332-8.648,3-13.057,4.222a47.272,47.272,0,0,1-14.279,1.705c-9.911-.323-19.485-3.267-28.868-6.235-16.437-5.2-34.717-10.767-51.242-2.751-6.439,3.123-11.893,8.363-14.192,15.244a23.956,23.956,0,0,0,1.383,18.862,17.628,17.628,0,0,0,6.288,6.558A.869.869,0,0,0,694.058,314.428Z" transform="translate(-367.967 -221.147)" fill="#2f2e41"/>
    <path id="Path_132" data-name="Path 132" d="M775.007,571.918h-8.544a3.767,3.767,0,0,1-3.763-3.762V518.806a3.767,3.767,0,0,1,3.763-3.763h8.544a3.767,3.767,0,0,1,3.762,3.763v49.349A3.767,3.767,0,0,1,775.007,571.918Z" transform="translate(-401.023 -323.829)" fill="#008f7a"/>
    <path id="Path_133" data-name="Path 133" d="M726.981,331.818a7.372,7.372,0,0,0,12.537,4.168l-1.451-.383a12.274,12.274,0,0,0,21.5,2.545c.654-.908-.852-1.776-1.5-.876a10.541,10.541,0,0,1-18.331-2.13.881.881,0,0,0-1.451-.383,5.649,5.649,0,0,1-9.635-3.4c-.155-1.1-1.828-.633-1.674.462Z" transform="translate(-385.975 -246.203)" fill="#2f2e41"/>
    <path id="Path_33" data-name="Path 33" d="M617.592,540.971l-.181.123-3.362-4.959a3.467,3.467,0,0,0-4.815-.924h0l-10.506,7.122a3.467,3.467,0,0,0-.924,4.815l18.443,27.2a3.467,3.467,0,0,0,4.816.924h0l10.506-7.122a3.467,3.467,0,0,0,.924-4.815h0L619.8,544.624l.181-.123Z" transform="translate(-331.323 -332.07)" fill="#3f3d56"/>
    <path id="Path_34" data-name="Path 34" d="M611.123,537.556l-1.327.9a1.191,1.191,0,0,1,.008,1.977l-5.826,3.949a1.191,1.191,0,0,1-1.833-.739l-1.24.841a2.507,2.507,0,0,0-.668,3.481h0l17.825,26.293a2.506,2.506,0,0,0,3.481.668h0L631.76,568a2.507,2.507,0,0,0,.668-3.481h0L614.6,538.224a2.507,2.507,0,0,0-3.481-.668h0Z" transform="translate(-332.418 -333.128)" fill="#fff"/>
  </g>
</svg>
