<svg xmlns="http://www.w3.org/2000/svg" width="711.165" height="805.328" viewBox="0 0 711.165 805.328">
  <g id="Group_711" data-name="Group 711" transform="translate(-1016.135 -598.829)">
    <ellipse id="Ellipse_23" data-name="Ellipse 23" cx="47.672" cy="47.672" rx="47.672" ry="47.672" transform="translate(1550.573 631.003) rotate(-7)" fill="#7752bc"/>
    <path id="Path_504" data-name="Path 504" d="M10.27,80.141a49.839,49.839,0,1,1,69.871,9.272A49.84,49.84,0,0,1,10.27,80.141Zm75.7-57.964a45.505,45.505,0,1,0-8.465,63.8,45.505,45.505,0,0,0,8.465-63.8Z" transform="translate(1563.286 631.082) rotate(-7)" fill="#1f1f1f" opacity="0.5"/>
    <ellipse id="Ellipse_19" data-name="Ellipse 19" cx="14.784" cy="14.784" rx="14.784" ry="14.784" transform="translate(1688.886 651.655) rotate(-7)" fill="#c1a0ff"/>
    <ellipse id="Ellipse_20" data-name="Ellipse 20" cx="7.626" cy="7.626" rx="7.626" ry="7.626" transform="translate(1665.011 600.763) rotate(-7)" fill="#008f7a" opacity="0.452"/>
    <path id="Path_500" data-name="Path 500" d="M3.185,24.853a15.456,15.456,0,1,1,21.668,2.875A15.456,15.456,0,0,1,3.185,24.853ZM26.662,6.878a14.112,14.112,0,1,0-2.625,19.784A14.112,14.112,0,0,0,26.662,6.878Z" transform="translate(1692.851 651.672) rotate(-7)" fill="#1f1f1f" opacity="0.5"/>
    <path id="Path_501" data-name="Path 501" d="M1.643,12.819A7.972,7.972,0,1,1,12.819,14.3,7.972,7.972,0,0,1,1.643,12.819ZM13.752,3.547a7.279,7.279,0,1,0-1.354,10.2,7.279,7.279,0,0,0,1.354-10.2Z" transform="translate(1667.056 600.772) rotate(-7)" fill="#1f1f1f" opacity="0.5"/>
    <text id="test" transform="translate(1588.414 679.126)" fill="#fff" font-size="19" font-family="BebasNeueRegular, Bebas Neue" letter-spacing="0.05em"><tspan x="0" y="0">test</tspan></text>
    <rect id="Rectangle_202" data-name="Rectangle 202" width="187" height="106" rx="9" transform="translate(1023.136 1298.157)" fill="#62e0cd"/>
    <ellipse id="Ellipse_14" data-name="Ellipse 14" cx="68.444" cy="68.444" rx="68.444" ry="68.444" transform="translate(1347.229 978.461) rotate(-7)" fill="#7752bc"/>
    <ellipse id="Ellipse_16" data-name="Ellipse 16" cx="58.475" cy="58.475" rx="58.475" ry="58.475" transform="translate(1489.204 760.734) rotate(-7)" fill="#62e0cd"/>
    <path id="Path_486" data-name="Path 486" d="M14.745,115.061a71.555,71.555,0,1,1,100.315,13.312A71.556,71.556,0,0,1,14.745,115.061ZM123.432,31.84a65.333,65.333,0,1,0-12.154,91.592A65.333,65.333,0,0,0,123.432,31.84Z" transform="translate(1365.145 978.208) rotate(-7)" fill="#1f1f1f" opacity="0.5"/>
    <path id="Path_496" data-name="Path 496" d="M12.6,98.3a61.133,61.133,0,1,1,85.7,11.373A61.134,61.134,0,0,1,12.6,98.3Zm92.856-71.1A55.817,55.817,0,1,0,95.07,105.454,55.817,55.817,0,0,0,105.454,27.2Z" transform="translate(1504.886 760.801) rotate(-7)" fill="#1f1f1f" opacity="0.5"/>
    <g id="Group_680" data-name="Group 680" transform="translate(1016.135 1094.975)">
      <path id="Path_480" data-name="Path 480" d="M630.955,516.432l-.779,9.153a4.05,4.05,0,0,1-4.374,3.688l-76.286-6.49a4.05,4.05,0,0,1-3.688-4.374l.779-9.153a4.05,4.05,0,0,1,4.374-3.688l76.286,6.49a4.05,4.05,0,0,1,3.688,4.374Z" transform="translate(-430.897 -339.949)" fill="#008f7a"/>
      <path id="Path_481" data-name="Path 481" d="M687.659,565.125l-8.449,3.6c-2.052.875-4.163.551-4.707-.724l-18.661-43.74c-.544-1.274.683-3.023,2.735-3.9l8.449-3.6c2.052-.875,4.163-.551,4.707.724l18.662,43.74C690.937,562.5,689.71,564.25,687.659,565.125Z" transform="translate(-472.396 -343.997)" fill="#008f7a"/>
      <path id="Path_483" data-name="Path 483" d="M542.286,659.782H366.774a5.608,5.608,0,0,1-5.6-5.6V554.6a5.608,5.608,0,0,1,5.6-5.6H542.286a5.608,5.608,0,0,1,5.6,5.6V654.18a5.608,5.608,0,0,1-5.6,5.6ZM366.774,550.243a4.362,4.362,0,0,0-4.357,4.357V654.18a4.362,4.362,0,0,0,4.357,4.357H542.286a4.362,4.362,0,0,0,4.357-4.357V554.6a4.362,4.362,0,0,0-4.357-4.357Z" transform="translate(-361.173 -356.355)" fill="#1f1f1f"/>
      <path id="Path_484" data-name="Path 484" d="M600.955,527.432l-.779,9.153a4.05,4.05,0,0,1-4.374,3.688l-76.286-6.49a4.05,4.05,0,0,1-3.688-4.374l.779-9.153a4.05,4.05,0,0,1,4.374-3.688l76.286,6.49a4.05,4.05,0,0,1,3.688,4.374Z" transform="translate(-419.568 -344.103)" fill="#008f7a"/>
      <path id="Path_485" data-name="Path 485" d="M657.659,576.125l-8.449,3.6c-2.052.875-4.163.551-4.707-.724l-18.662-43.74c-.544-1.274.683-3.023,2.735-3.9l8.449-3.6c2.052-.875,4.163-.551,4.707.724l18.661,43.74C660.937,573.5,659.71,575.25,657.659,576.125Z" transform="translate(-461.067 -348.15)" fill="#008f7a"/>
      <ellipse id="Ellipse_15" data-name="Ellipse 15" cx="33.309" cy="33.309" rx="33.309" ry="33.309" transform="translate(73.38 27.395)" fill="#008f7a"/>
      <path id="Path_490" data-name="Path 490" d="M540.449,351.387l-.035-1.245c2.316-.064,4.357-.21,5.891-1.33a3.826,3.826,0,0,0,1.482-2.818,2.187,2.187,0,0,0-.718-1.8c-1.018-.86-2.657-.582-3.851-.034l-1.03.472,1.528-1.987a4.394,4.394,0,0,1,4.156.6,3.405,3.405,0,0,1,1.158,2.8,5.062,5.062,0,0,1-1.992,3.78C545.069,351.258,542.507,351.329,540.449,351.387Z" transform="translate(-428.857 -278.337)" fill="#1f1f1f"/>
      <rect id="Rectangle_200" data-name="Rectangle 200" width="6.704" height="1.245" transform="translate(122.638 53.088)" fill="#1f1f1f"/>
      <rect id="Rectangle_201" data-name="Rectangle 201" width="6.704" height="1.245" transform="translate(101.477 53.088)" fill="#1f1f1f"/>
      <path id="Path_491" data-name="Path 491" d="M559.894,494.1h-78.42a2.8,2.8,0,0,1-2.8-2.8v-63a28.836,28.836,0,0,1,28.8-28.8h25.655a2.8,2.8,0,0,1,2.8,2.754l26.763,89v.046A2.8,2.8,0,0,1,559.894,494.1Z" transform="translate(-405.543 -299.901)" fill="#362457"/>
      <path id="Path_492" data-name="Path 492" d="M522.637,440.453l9.186.072a4.05,4.05,0,0,1,4.014,4.077l-.6,76.559a4.05,4.05,0,0,1-4.077,4.014l-9.186-.072a4.05,4.05,0,0,1-4.014-4.077l.6-76.559a4.05,4.05,0,0,1,4.077-4.014Z" transform="translate(-420.378 -315.366)" fill="#008f7a"/>
      <path id="Path_493" data-name="Path 493" d="M510.673,427.19a13.692,13.692,0,1,1,27.385,0v30.5H510.673Z" transform="translate(-417.627 -305.188)" fill="#362457"/>
      <path id="Path_494" data-name="Path 494" d="M462.37,284.489c3.155-3.246,7.738-3.8,12.051-3.451,4.618.378,8.995,1.912,13.525,2.766,4.469.842,9.313,1.219,13.584-.646a12.5,12.5,0,0,0,7.3-9.945,18.071,18.071,0,0,0-3.272-12.745c-2.925-4.133-7.081-7.161-11.4-9.7-9.312-5.478-19.695-10.272-30.59-11.158-9.836-.8-20.267,1.918-27.186,9.264-6.486,6.886-9.247,16.5-9.822,25.752-.733,11.812,2.024,23.477,3.021,35.19.776,9.114.486,20.055-6.916,26.6-6.547,5.789-16.516,5.72-24.234,2.558-9.175-3.759-15.612-12.2-20.481-20.491-1.24-2.111-2.4-4.265-3.535-6.437-.555-1.066-2.167-.123-1.612.942,4.557,8.757,9.857,17.5,17.828,23.572,6.969,5.306,16.268,7.861,24.882,5.619a20.072,20.072,0,0,0,10.641-6.725,26.021,26.021,0,0,0,5.148-12.835,62.362,62.362,0,0,0-.051-14.912c-.6-5.973-1.565-11.9-2.224-17.869-1.122-10.162-1.276-20.708,2.739-30.309a30.217,30.217,0,0,1,7.862-11.19,28.763,28.763,0,0,1,13.123-6.258c10.555-2.19,21.285.775,30.84,5.244a86.776,86.776,0,0,1,13.79,7.738c3.857,2.761,7.449,6.376,8.935,10.987,1.281,3.973,1.174,8.677-1.379,12.141-2.728,3.7-7.457,4.627-11.792,4.4-8.9-.458-17.877-5.633-26.837-2.679a12.911,12.911,0,0,0-5.255,3.254c-.838.862.481,2.184,1.32,1.32Z" transform="translate(-365.52 -239.472)" fill="#1f1f1f"/>
    </g>
    <text id="define" transform="translate(1395.453 1043.846)" fill="#fff" font-size="22" font-family="BebasNeueRegular, Bebas Neue" letter-spacing="0.05em"><tspan x="0" y="0">define</tspan></text>
    <text id="prototype" transform="translate(1523.472 819.518)" fill="#fff" font-size="22" font-family="BebasNeueRegular, Bebas Neue" letter-spacing="0.05em"><tspan x="0" y="0">prototype</tspan></text>
    <ellipse id="Ellipse_21" data-name="Ellipse 21" cx="68.444" cy="68.444" rx="68.444" ry="68.444" transform="translate(1175.012 1057.18) rotate(-7)" fill="#62e0cd"/>
    <path id="Path_502" data-name="Path 502" d="M14.745,115.061a71.555,71.555,0,1,1,100.315,13.312A71.556,71.556,0,0,1,14.745,115.061ZM123.432,31.84a65.333,65.333,0,1,0-12.154,91.592A65.333,65.333,0,0,0,123.432,31.84Z" transform="translate(1193.262 1056.711) rotate(-7)" fill="#1f1f1f" opacity="0.5"/>
    <text id="empathize" transform="translate(1217.902 1121.877)" fill="#fff" font-size="23" font-family="BebasNeueRegular, Bebas Neue" letter-spacing="0.05em"><tspan x="0" y="0">empathize</tspan></text>
    <ellipse id="Ellipse_22" data-name="Ellipse 22" cx="63.354" cy="63.354" rx="63.354" ry="63.354" transform="translate(1335.535 824.038) rotate(-7)" fill="#c1a0ff"/>
    <path id="Path_503" data-name="Path 503" d="M13.649,106.5A66.234,66.234,0,1,1,106.5,118.825,66.234,66.234,0,0,1,13.649,106.5Zm100.6-77.032A60.474,60.474,0,1,0,103,114.253a60.474,60.474,0,0,0,11.25-84.78Z" transform="translate(1352.151 823.689) rotate(-7)" fill="#1f1f1f" opacity="0.5"/>
    <text id="ideate" transform="translate(1383.759 890.749)" fill="#fff" font-size="24" font-family="BebasNeueRegular, Bebas Neue" letter-spacing="0.05em"><tspan x="0" y="0">ideate</tspan></text>
    <ellipse id="Ellipse_26" data-name="Ellipse 26" cx="14.784" cy="14.784" rx="14.784" ry="14.784" transform="translate(1445.453 759.655) rotate(-7)" fill="#c1a0ff"/>
    <path id="Path_505" data-name="Path 505" d="M3.185,24.853a15.456,15.456,0,1,1,21.668,2.875A15.456,15.456,0,0,1,3.185,24.853ZM26.662,6.878a14.112,14.112,0,1,0-2.625,19.784A14.112,14.112,0,0,0,26.662,6.878Z" transform="translate(1449.417 759.672) rotate(-7)" fill="#1f1f1f" opacity="0.5"/>
    <ellipse id="Ellipse_27" data-name="Ellipse 27" cx="10.775" cy="10.775" rx="10.775" ry="10.775" transform="translate(1646.482 737.734) rotate(-7)" fill="#008f7a" opacity="0.452"/>
    <path id="Path_506" data-name="Path 506" d="M2.321,18.114a11.265,11.265,0,1,1,15.793,2.1,11.265,11.265,0,0,1-15.793-2.1Zm17.111-13.1a10.286,10.286,0,1,0-1.913,14.42,10.286,10.286,0,0,0,1.913-14.42Z" transform="translate(1649.372 737.746) rotate(-7)" fill="#1f1f1f" opacity="0.5"/>
  </g>
</svg>
