<svg id="undraw_Celebrating_re_fsbq" xmlns="http://www.w3.org/2000/svg" width="288.529" height="285.657" viewBox="0 0 288.529 285.657">
  <path id="Path_80" data-name="Path 80" d="M638.4,609.818a45.412,45.412,0,0,1,3.916,28.232,46.469,46.469,0,0,1-10.794,22.086c-.314.36-.635.709-.961,1.052.526-.034,1.058-.08,1.584-.126.337-.029.68-.057,1.018-.091-.537.132-1.081.263-1.624.377l-.984-.086c-.017-.006-.04-.006-.057-.011-.132-.011-.263-.023-.389-.029-.56-.052-1.121-.109-1.681-.16l.131.251.332.629h-.005c-.12-.206-.24-.417-.355-.629-.046-.074-.1-.154-.137-.234.1-.1.2-.2.3-.3a43.877,43.877,0,0,0,3.785-57.527c.56-.166,1.126-.3,1.7-.429A46.947,46.947,0,0,1,638.4,609.818Z" transform="translate(-488.191 -378.794)" fill="#fff"/>
  <path id="Path_85" data-name="Path 85" d="M480.886,538.207a4.006,4.006,0,0,1-4.019-.737l-6.359-5.546a4.006,4.006,0,0,1-.386-5.647l46.227-53a4.006,4.006,0,0,1,5.647-.386l6.36,5.547a4.006,4.006,0,0,1,.386,5.646l-46.227,53A3.978,3.978,0,0,1,480.886,538.207Z" transform="translate(-419.988 -322.726)" fill="#008f7a"/>
  <path id="Path_86" data-name="Path 86" d="M594.913,450.1a4.02,4.02,0,0,1-1.226-.193,3.974,3.974,0,0,1-2.339-1.977l-3.867-7.5a4.006,4.006,0,0,1,1.723-5.391l62.511-32.229a4.006,4.006,0,0,1,5.391,1.723l3.867,7.5a4.006,4.006,0,0,1-1.723,5.391l-62.511,32.229A3.977,3.977,0,0,1,594.913,450.1Z" transform="translate(-470.48 -292.947)" fill="#008f7a"/>
  <path id="Path_87" data-name="Path 87" d="M593,463.363a4.013,4.013,0,0,1-3.585-2.21l-3.786-7.542a3.994,3.994,0,0,1-.31-2.75c.025-.1.054-.2.088-.305h0c.077-.23.16-.59.256-1.005.307-1.327.689-2.978,1.467-3.368L614.6,429.534a4,4,0,0,1,5.392,1.77l6.929,14.281a4.006,4.006,0,0,1-1.783,5.369l-30.371,11.99A3.92,3.92,0,0,1,593,463.363Z" transform="translate(-469.695 -304.395)" fill="#382457"/>
  <circle id="Ellipse_8" data-name="Ellipse 8" cx="30.599" cy="30.599" r="30.599" transform="translate(81.305 60.758)" fill="#008f7a"/>
  <path id="Path_88" data-name="Path 88" d="M559.147,651.083h-8.438a4.007,4.007,0,0,1-4-4V575.607a4.006,4.006,0,0,1,4-4h8.438a4.006,4.006,0,0,1,4,4v71.474A4.007,4.007,0,0,1,559.147,651.083Z" transform="translate(-453.208 -365.426)" fill="#008f7a"/>
  <path id="Path_89" data-name="Path 89" d="M598.415,599.908a4,4,0,0,1-3.261-1.673l-40.906-57.211a4.006,4.006,0,0,1,.928-5.583l6.864-4.908a4.006,4.006,0,0,1,5.583.928l40.906,57.211a4.007,4.007,0,0,1-.928,5.583l-6.864,4.908A3.981,3.981,0,0,1,598.415,599.908Z" transform="translate(-456.119 -347.517)" fill="#008f7a"/>
  <path id="Path_90" data-name="Path 90" d="M603.654,672.265a5.509,5.509,0,0,1-2.417-.6l-7.554-3.761c-1.975-.984-3.064-2.826-2.426-4.106l19.469-39.106c.637-1.28,2.763-1.522,4.739-.539l7.554,3.761a5.328,5.328,0,0,1,2.166,1.882,2.261,2.261,0,0,1,.261,2.224l-19.469,39.106A2.452,2.452,0,0,1,603.654,672.265Z" transform="translate(-472.209 -387.67)" fill="#008f7a"/>
  <path id="Path_91" data-name="Path 91" d="M536.232,498.038a4.014,4.014,0,0,1-4.191-.907l-11.448-10.985a4,4,0,0,1-.043-5.662l24.332-21.036c.594-.605,2.283-.459,3.639-.343.426.037.793.068,1.036.066.107,0,.213,0,.317.01h0a4,4,0,0,1,2.521,1.142l6.009,5.924a4.007,4.007,0,0,1,.04,5.66l-20.727,25.164a4.035,4.035,0,0,1-1.485.965Z" transform="translate(-441.512 -317.201)" fill="#382457"/>
  <path id="Path_92" data-name="Path 92" d="M571.75,373.893l-.032-1.143c2.127-.059,4-.193,5.412-1.222a3.515,3.515,0,0,0,1.362-2.589,2.009,2.009,0,0,0-.659-1.655c-.936-.79-2.441-.534-3.538-.031l-.946.434,1.4-1.825a4.036,4.036,0,0,1,3.818.549,3.129,3.129,0,0,1,1.064,2.568,4.65,4.65,0,0,1-1.83,3.472C575.994,373.774,573.641,373.84,571.75,373.893Z" transform="translate(-463.92 -271.196)" fill="#2f2e41"/>
  <rect id="Rectangle_16" data-name="Rectangle 16" width="6.158" height="1.143" transform="translate(117.979 84.36)" fill="#2f2e41"/>
  <rect id="Rectangle_17" data-name="Rectangle 17" width="6.158" height="1.143" transform="translate(98.54 84.36)" fill="#2f2e41"/>
  <path id="Path_93" data-name="Path 93" d="M588.588,526.323H493.405a3.708,3.708,0,0,1-3.218-5.574l47.591-82.43A3.679,3.679,0,0,1,541,436.46h0a3.678,3.678,0,0,1,3.218,1.858l47.591,82.43a3.716,3.716,0,0,1-3.219,5.574Z" transform="translate(-428.787 -307.548)" fill="#382457"/>
  <path id="Path_94" data-name="Path 94" d="M499.621,298.775c-3.393-13.6-16.545-24.044-30.638-23.784a32.458,32.458,0,0,0-19.186,6.957,31.016,31.016,0,0,0-7.036,7.7,39.192,39.192,0,0,0-4.5,10.834c-2.1,7.631-3.1,16.267-8.435,22.5a23.45,23.45,0,0,1-17.743,7.982,21.907,21.907,0,0,1-17.321-8.944c-4.019-5.358-6-12.768-3.676-19.235,1.139-3.173,3.589-6.171,7.093-6.7A8.268,8.268,0,0,1,406.367,300a8.14,8.14,0,0,1-.9,8.893,8.011,8.011,0,0,1-12.264-.338c-.685-.865-1.9.348-1.222,1.2a9.915,9.915,0,0,0,9.056,3.46,9.256,9.256,0,0,0,7.376-6.163,9.4,9.4,0,0,0-1.715-9.5,10.057,10.057,0,0,0-9.342-3.06c-3.618.766-6.245,3.742-7.609,7.039a19.644,19.644,0,0,0-1.023,10.777,25.249,25.249,0,0,0,11.557,17.027,23.8,23.8,0,0,0,20.4,1.855,25.008,25.008,0,0,0,8.958-5.516,26.811,26.811,0,0,0,6.171-9.848c3.017-7.9,3.459-16.738,7.728-24.163a30.41,30.41,0,0,1,16.541-13.376,28.436,28.436,0,0,1,21.1,1.013,31.051,31.051,0,0,1,15.033,14.926,27.8,27.8,0,0,1,1.747,4.99.858.858,0,0,0,1.657-.444Z" transform="translate(-385.405 -238.393)" fill="#2f2e41"/>
  <path id="Path_95" data-name="Path 95" d="M578.965,444.076H566.387a3.721,3.721,0,0,1-3.716-3.716v-1.143a3.721,3.721,0,0,1,3.716-3.716h12.578a3.721,3.721,0,0,1,3.716,3.716v1.143A3.721,3.721,0,0,1,578.965,444.076Z" transform="translate(-460.045 -307.136)" fill="#382457"/>
  <circle id="Ellipse_9" data-name="Ellipse 9" cx="3.43" cy="3.43" r="3.43" transform="translate(49.169 218.983)" fill="#e6e6e6"/>
  <circle id="Ellipse_10" data-name="Ellipse 10" cx="3.43" cy="3.43" r="3.43" transform="translate(214.971 164.097)" fill="#f2f2f2"/>
  <circle id="Ellipse_11" data-name="Ellipse 11" cx="3.43" cy="3.43" r="3.43" transform="translate(0 178.962)" fill="#f2f2f2"/>
  <path id="Path_97" data-name="Path 97" d="M770.739,284.3a74.754,74.754,0,0,1-39.053-10.4c-12.163-7.3-37.246-3.073-39.127.65l-2.306,5.555,6.5-64.313.245-.228c.535-.512,13.562-12.417,47.694,4.326,25.906,12.705,47.083,6.717,54.985,3.553a2.573,2.573,0,0,1,3.53,2.56l-3.573,51.822a2.552,2.552,0,0,1-1.776,2.271A91.634,91.634,0,0,1,770.739,284.3Z" transform="translate(-514.684 -210.982)" fill="#97b0aa"/>
  <path id="Path_98" data-name="Path 98" d="M694.142,215.7a3.955,3.955,0,0,0-3.951,3.951V352.749a3.951,3.951,0,1,0,7.9,0V219.654A3.955,3.955,0,0,0,694.142,215.7Z" transform="translate(-514.658 -213.004)" fill="#382457"/>
</svg>
