<svg xmlns="http://www.w3.org/2000/svg" width="307" height="112" viewBox="0 0 307 112"><defs><style>.a,.d{fill:#008f7a;}.a{font-size:112px;font-family:BebasNeueRegular, Bebas Neue;}.b{letter-spacing:0.12em;}.c{letter-spacing:0.075em;}</style></defs><g transform="translate(-492.732 -620.707)"><text class="a" transform="translate(492.732 704.707)"><tspan x="0" y="0">Pac</tspan><tspan class="b" y="0">h</tspan><tspan class="c" y="0"> </tspan><tspan y="0">ra</tspan></text><g transform="translate(668.476 625.797)"><ellipse class="d" cx="10.5" cy="2" rx="10.5" ry="2" transform="translate(13.256 54.91)"/><path class="d" d="M838.927,336.385c-.094-.077,2.219,3.073-.034,10.78-2.782,9.491-5.659,14.877-3.346,28.26s5.479,4.848,5.411,3.662-5-6.965-1.852-23.386S839.021,336.462,838.927,336.385Z" transform="translate(-815.394 -309.748)"/><path class="d" d="M850.052,336.391c.213-.068-6.077,4.02-3.969,14.535,1.289,6.41,5.923,10.362,8.125,15.406,1.408,3.235,1.818,6.913-.3,11.975-5.411,12.965-10.422,5.906-10.268,4.754s9.312-7.955,1.938-23.864S849.83,336.459,850.052,336.391Z" transform="translate(-823.105 -309.754)"/><path class="d" d="M846.514,369.99c.1-.068-2.97,3.644-1.937,13.2.623,5.821,2.893,9.406,3.96,13.989a23.142,23.142,0,0,1-.145,10.865c-2.637,11.77-5.087,2.014-5.01.973s4.541-3.875.947-18.316S846.4,370.05,846.514,369.99Z" transform="translate(-823.108 -340.485)"/><path class="d" d="M806.453,369.885c-.188-.077,4.447,3.073-.077,10.78-5.556,9.5-11.309,14.877-6.683,28.268s10.959,4.848,10.831,3.662-10.012-6.965-3.7-23.386S806.64,369.962,806.453,369.885Z" transform="translate(-781.827 -340.389)"/><path class="d" d="M30.641,34.685c.077-.922.068-3.918-5.4-7.451A8.58,8.58,0,0,1,21,20.944a11.03,11.03,0,0,1-2.62,3.1c-3.57,3.051-9.527.237-13.688-2.577-2.963-2-5.015-4.007-4.645-3.893.888.273,3.815.888,8.424-3.713C13.537,8.807,18.615,12,18.615,12s.1.08.274.23A9.279,9.279,0,0,1,25.46,5.188C30.88,3.651,32.067.912,32.374.032,32.6-.6,32.949,8.1,30.606,13.888A12.425,12.425,0,0,1,33.1,15.4c6.208,4.732-2.03,19.331-2.443,19.329C30.645,34.725,30.639,34.712,30.641,34.685Z" transform="translate(2.05 11.318)"/><path class="d" d="M-17.548,0A101.972,101.972,0,0,0-6.666.686,91.146,91.146,0,0,0,3.854,0S4.677,15.463.376,20.617s-9.248,5.154-13.729,0S-17.548,0-17.548,0Z" transform="translate(30.528 56.614)"/><path class="d" d="M0,0C4.844,3.657,9.717,4.583,16.684,13.393Z" transform="translate(11.338 8.829) rotate(20)"/><path class="d" d="M8.97,7.9A5.686,5.686,0,0,0,4.658,3.207C1.086,2.31.339.571.142.02S-.653,10.248,3.706,11.727C9.1,13.553,8.97,7.9,8.97,7.9Z" transform="translate(10.11 0) rotate(7)"/><path class="d" d="M2.149,6.156A6.061,6.061,0,0,0,7.94,4.606c2.447-2.337,4.178-2.282,4.7-2.227S4.982-1.806,1.693.908C-2.367,4.26,2.149,6.156,2.149,6.156Z" transform="translate(15.278 9.102) rotate(7)"/><path class="d" d="M13.856,6.654S9.969,8.81,6.279,6.662C2.92,4.7.709,5.309.032,5.537S9.489-1.756,13.958.384C19.473,3.019,13.856,6.654,13.856,6.654Z" transform="translate(0.928 9.382) rotate(7)"/></g></g></svg>