<svg xmlns="http://www.w3.org/2000/svg" width="530.442" height="271.37" viewBox="0 0 530.442 271.37"><defs><style>.a,.b{fill:#008f7a;}.a{font-size:165px;font-family:BebasNeueRegular, Bebas Neue;}</style></defs><g transform="translate(-357.056 -233)"><text class="a" transform="translate(467.497 463.37)"><tspan x="0" y="0">Pachira</tspan></text><g transform="translate(357.056 233)"><ellipse class="b" cx="30.569" cy="3.944" rx="30.569" ry="3.944" transform="translate(37.471 163.563)"/><path class="b" d="M847.454,336.174c-.276-.226,6.631,9.6,0,32.282-8.188,27.929-17,43.871-10.194,83.253s15.492,13.685,15.291,10.194-14.365-19.638-5.1-67.961S847.73,336.4,847.454,336.174Z" transform="translate(-777.794 -258.152)"/><path class="b" d="M863.973,336.179c.628-.2-18.1,11.533-11.893,42.476,3.793,18.862,17.306,31.03,23.786,45.874,4.144,9.519,4.53,20.786-1.7,35.68-15.924,38.152-29.336,16.983-28.884,13.592s26.8-22.844,5.1-69.661S863.32,336.38,863.973,336.179Z" transform="translate(-784.118 -258.157)"/><path class="b" d="M853.665,369.811c.3-.2-9.835,10.973-6.8,39.078,1.833,17.129,8.754,27.29,11.893,40.777a68.562,68.562,0,0,1,0,32.282c-7.761,34.635-15.517,6.462-15.291,3.4s13.972-11.873,3.4-54.369S853.339,369.987,853.665,369.811Z" transform="translate(-784.005 -283.294)"/><path class="b" d="M823.373,369.722c-.553-.226,13.312,9.6,0,32.282-16.351,27.954-34,43.845-20.389,83.253,13.613,39.382,32.658,13.685,32.282,10.194s-30.454-19.638-11.893-67.961S823.926,369.948,823.373,369.722Z" transform="translate(-750.315 -283.205)"/><path class="b" d="M90.178,102.038c.226-2.713-.89-11.69-16.99-22.088-9.11-5.9-11.99-13.389-12.64-19.262A33.623,33.623,0,0,1,52.8,69.757c-10.517,8.988-27.639.8-39.522-7.393C4.84,56.548-.955,50.733.131,51.066c2.612.8,10.224,3.344,23.786-10.193C38.836,26,54.5,34.076,54.5,34.076s.272.222.72.644c1.625-5.052,6.519-15.621,19.668-19.333C90.837,10.865,94.373,2.683,95.276.1c.647-1.833,1.66,23.078-4.964,40.057a37.1,37.1,0,0,1,6.663,4.118c18.277,13.935-5.591,57.887-6.755,57.882C90.187,102.153,90.172,102.115,90.178,102.038Z" transform="translate(6.666 33.751)"/><path class="b" d="M-18.027-.132s16.537,1.7,32.282,1.7,32.282-1.7,32.282-1.7,2.464,46-10.194,61.165S8.751,76.2-4.435,61.033-18.027-.132-18.027-.132Z" transform="translate(55.406 166.504)"/><path class="b" d="M0,0C14.254,10.762,28.594,13.487,49.095,39.412Z" transform="translate(33.364 25.98) rotate(20)"/><path class="b" d="M26.395,23.235a16.731,16.731,0,0,0-12.687-13.8C3.2,6.8,1,1.681.418.06s-2.338,30.1,10.488,34.45C26.765,39.881,26.395,23.235,26.395,23.235Z" transform="translate(29.752 0) rotate(7)"/><path class="b" d="M6.325,18.115a17.835,17.835,0,0,0,17.04-4.561C30.566,6.678,35.659,6.84,37.21,7S14.66-5.315,4.982,2.672C-6.964,12.535,6.325,18.115,6.325,18.115Z" transform="translate(44.957 26.783) rotate(7)"/><path class="b" d="M40.773,19.581s-11.437,6.344-22.3.023C8.592,13.839,2.086,15.622.1,16.294S27.924-5.168,41.074,1.129C57.3,8.885,40.773,19.581,40.773,19.581Z" transform="translate(2.731 27.608) rotate(7)"/></g></g></svg>