<svg xmlns="http://www.w3.org/2000/svg" width="47.833" height="46.576" viewBox="0 0 47.833 46.576">
  <g id="Group_33" data-name="Group 33" opacity="0.25">
    <g id="Group_19" data-name="Group 19" transform="translate(0 0)">
      <path id="Path_4" data-name="Path 4" d="M0,0C8.319,6.281,16.687,7.871,28.652,23Z" transform="translate(19.471 15.162) rotate(20)" fill="#008f7a"/>
      <path id="Path_7" data-name="Path 7" d="M15.4,13.56A9.764,9.764,0,0,0,8,5.507C1.865,3.967.582.981.244.035S-1.121,17.6,6.365,20.14C15.62,23.275,15.4,13.56,15.4,13.56Z" transform="translate(17.363 0) rotate(7)" fill="#008f7a"/>
      <path id="Path_9" data-name="Path 9" d="M3.692,10.572A10.409,10.409,0,0,0,13.636,7.91c4.2-4.013,7.175-3.918,8.08-3.824S8.556-3.1,2.908,1.56C-4.064,7.316,3.692,10.572,3.692,10.572Z" transform="translate(26.237 15.631) rotate(7)" fill="#008f7a"/>
      <path id="Path_10" data-name="Path 10" d="M23.8,11.428s-6.675,3.7-13.012.014C5.014,8.077,1.217,9.117.055,9.509S16.3-3.016,23.971.659C33.443,5.185,23.8,11.428,23.8,11.428Z" transform="translate(1.594 16.113) rotate(7)" fill="#008f7a"/>
    </g>
  </g>
</svg>
